<svg width="125" height="89" viewBox="0 0 125 89" fill="none" xmlns="http://www.w3.org/2000/svg">
  <path d="M81.9437 60.1095C85.3874 55.2985 81.0085 34.1082 88.573 19.5886C96.1375 5.06907 108.861 3.0225 112.202 2.03103C119.404 -0.10586 125 0.000880598 125 0.000880598C125 0.000880598 122.813 2.52134 120.339 6.9092C117.865 11.2971 115.103 17.5523 113.952 25.0219C112.802 32.4915 115.217 38.9389 116.942 44.6369C118.667 50.335 119.703 55.2842 115.793 59.7576C111.883 64.2311 103.603 64.4942 96.3011 63.6391" fill="white"/>
  <path d="M21.0332 18.8601H55.4896C55.4896 26.0617 54.9893 38.2925 47.3053 38.2925L21.0332 31.8997V18.8601Z" fill="#D7DDFF"/>
  <path d="M1.97498 2.92816C7.55043 10.5165 11.8039 12.1209 21.6344 12.1209H51.1192C53.5329 12.1209 55.4894 13.9546 55.4894 16.2167V21.4676C55.4894 21.4676 23.6334 19.9236 21.033 34.7575C19.1656 45.4112 25.8581 52.4776 25.2208 60.8055C24.9704 64.0735 23.5971 68.176 16.8121 74.3653C10.0273 80.5543 0 88.0752 0 88.0752L1.97498 2.92816Z" fill="white"/>
  <path d="M31.7594 62.0518C31.8967 61.618 67.5837 61.4655 79.214 61.4655C79.6098 61.4655 87.8611 89 87.8611 89L77.4805 88.6889L60.7965 75.7411C55.1416 71.3527 46.7041 72.3688 42.4168 77.9549L33.9399 89H5.41847C5.41847 89 26.0616 80.0615 31.7594 62.0518Z" fill="white"/>
  <path d="M124.999 0C124.999 0 124.485 0.0343181 124.417 0.0340249C124.42 0.0381303 124.592 0.418466 124.623 0.476822C124.696 0.389728 124.999 0 124.999 0ZM124.308 0.045453C123.391 0.0460395 118.738 0.0947236 112.209 2.03192C108.868 3.02309 96.145 5.07172 88.5808 19.5913C81.0163 34.1108 85.3874 55.3021 81.9437 60.1131C81.9437 60.1131 98.8277 61.5473 103.472 52.842C108.688 43.0651 103.506 34.5261 107.292 21.1021C111.046 7.79071 124.002 0.151022 124.308 0.045453Z" fill="#D7DDFF"/>
</svg>


