<svg width="47" height="47" viewBox="0 0 47 47" fill="none" xmlns="http://www.w3.org/2000/svg">
<path d="M9.39989 11.7498H1.83289C0.963393 11.7498 0.0938927 12.5018 0.211393 13.7238L3.87739 37.2003C3.87739 37.2003 8.22489 19.9043 9.07089 15.7448C9.32939 14.4993 10.5044 14.0998 11.3739 14.0998H23.4999C23.4999 14.0998 21.8549 9.2118 21.6904 8.6713C21.4084 7.6373 20.8914 7.0498 19.8574 7.0498H12.0789C11.2329 7.0498 10.4339 7.5903 10.1989 8.55381C9.98739 9.49381 9.39989 11.7498 9.39989 11.7498ZM20.8679 11.7498H11.4679C11.4679 11.7498 12.4549 9.3998 13.5124 9.3998H18.5179C19.6459 9.3998 20.8679 11.7498 20.8679 11.7498ZM6.27439 38.1873C5.54589 39.2918 4.48839 39.9498 3.31339 39.9498H40.2789C41.5479 39.9498 42.4409 39.2213 42.6994 37.9993C43.7334 32.8528 46.6474 18.1653 46.6474 18.1653C46.8119 16.9903 45.9424 16.4498 45.1904 16.4498H37.5999V12.9953C37.5999 12.6193 36.9889 11.7498 36.0489 11.7498H27.2129C25.9909 11.7498 25.1684 13.1128 25.1684 13.1128L23.4999 16.4498H13.1364C12.3844 16.4498 11.6559 16.8963 11.5149 17.6248C11.5149 17.6248 7.77839 33.3698 7.47289 34.8503C7.30839 35.7198 6.95589 37.1768 6.27439 38.1873ZM36.1429 16.4498H25.8499C25.8499 16.4498 27.2129 14.0998 28.5054 14.0998H33.8869C35.5554 14.0998 36.1429 16.4498 36.1429 16.4498Z" fill="black"/>
</svg>
