<svg width="56" height="56" viewBox="0 0 56 56" fill="none" xmlns="http://www.w3.org/2000/svg">
<g clip-path="url(#clip0_426_2)">
<path d="M14 21C15.8565 21 17.637 20.2625 18.9497 18.9497C20.2625 17.637 21 15.8565 21 14M14 21C12.1435 21 10.363 20.2625 9.05025 18.9497C7.7375 17.637 7 15.8565 7 14M14 21V28M21 14C21 12.1435 20.2625 10.363 18.9497 9.05025C17.637 7.7375 15.8565 7 14 7M21 14H28M14 7C12.1435 7 10.363 7.7375 9.05025 9.05025C7.7375 10.363 7 12.1435 7 14M14 7V0M7 14H0M4.66667 4.66667L9.33333 9.33333M18.6667 18.6667L23.3333 23.3333M23.3333 4.66667L18.6667 9.33333M9.33333 18.6667L4.66667 23.3333M42 28C43.8565 28 45.637 27.2625 46.9497 25.9497C48.2625 24.637 49 22.8565 49 21M42 28C40.1435 28 38.363 27.2625 37.0503 25.9497C35.7375 24.637 35 22.8565 35 21M42 28V35M49 21C49 19.1435 48.2625 17.363 46.9497 16.0503C45.637 14.7375 43.8565 14 42 14M49 21H56M42 14C40.1435 14 38.363 14.7375 37.0503 16.0503C35.7375 17.363 35 19.1435 35 21M42 14V7M35 21H28M32.6667 11.6667L37.3333 16.3333M46.6667 25.6667L51.3333 30.3333M51.3333 11.6667L46.6667 16.3333M37.3333 25.6667L32.6667 30.3333M21 49C22.8565 49 24.637 48.2625 25.9497 46.9497C27.2625 45.637 28 43.8565 28 42M21 49C19.1435 49 17.363 48.2625 16.0503 46.9497C14.7375 45.637 14 43.8565 14 42M21 49V56M28 42C28 40.1435 27.2625 38.363 25.9497 37.0503C24.637 35.7375 22.8565 35 21 35M28 42H35M21 35C19.1435 35 17.363 35.7375 16.0503 37.0503C14.7375 38.363 14 40.1435 14 42M21 35V28M14 42H7M11.6667 32.6667L16.3333 37.3333M25.6667 46.6667L30.3333 51.3333M30.3333 32.6667L25.6667 37.3333M16.3333 46.6667L11.6667 51.3333" stroke="black" stroke-width="4"/>
</g>
<defs>
<clipPath id="clip0_426_2">
<rect width="56" height="56" fill="white"/>
</clipPath>
</defs>
</svg>
