<svg width="56" height="56" viewBox="0 0 56 56" fill="none" xmlns="http://www.w3.org/2000/svg">
<path d="M28 28C26.5267 28 25.0534 27.7386 23.905 27.2158L7.7175 19.8341C6.97703 19.4972 5.25 18.5117 5.25 16.6513C5.25 14.7908 6.97703 13.8075 7.71969 13.4663L24.0472 6.02109C26.297 4.99297 29.692 4.99297 31.943 6.02109L48.2803 13.4663C49.023 13.8042 50.75 14.7897 50.75 16.6513C50.75 18.5128 49.023 19.495 48.2803 19.8352L32.0928 27.2158C30.9466 27.7386 29.4733 28 28 28Z" fill="black"/>
<path d="M48.2737 24.8073L46.6233 24.0625L42.3828 26.0028L32.1016 30.7059C30.9531 31.2309 29.4766 31.4923 28.0066 31.4923C26.5366 31.4923 25.0611 31.2309 23.9137 30.7059L13.6248 26.0028L9.38328 24.0625L7.71859 24.8106C6.97703 25.1486 5.25 26.1406 5.25 28C5.25 29.8594 6.97703 30.8525 7.7175 31.1905L23.905 38.5875C25.0469 39.1125 26.5223 39.375 28 39.375C29.4777 39.375 30.9466 39.1125 32.095 38.5886L48.2683 31.1938C49.0131 30.8558 50.75 29.8692 50.75 28C50.75 26.1308 49.0252 25.1486 48.2737 24.8073Z" fill="black"/>
<path d="M48.2737 36.1812L46.6233 35.4375L42.3828 37.3767L32.1016 42.0744C30.9531 42.5972 29.4766 42.8597 28.0066 42.8597C26.5366 42.8597 25.0611 42.5983 23.9137 42.0744L13.6248 37.3712L9.38328 35.4375L7.71859 36.1856C6.97703 36.5236 5.25 37.5156 5.25 39.375C5.25 41.2344 6.97703 42.2264 7.7175 42.5633L23.905 49.9559C25.0469 50.4787 26.5278 50.75 28 50.75C29.4722 50.75 30.94 50.4788 32.0884 49.9548L48.2672 42.5644C49.0131 42.2275 50.75 41.2409 50.75 39.375C50.75 37.5091 49.0252 36.5236 48.2737 36.1812Z" fill="black"/>
</svg>
