<svg width="56" height="56" viewBox="0 0 56 56" fill="none" xmlns="http://www.w3.org/2000/svg">
<path fill-rule="evenodd" clip-rule="evenodd" d="M37.653 11.0319L41.923 15.3019C48.1973 21.5786 51.3333 24.7146 51.3333 28.6113C51.3333 32.5103 48.1973 35.6463 41.923 41.9206C35.6463 48.1973 32.5103 51.3333 28.6113 51.3333C24.7147 51.3333 21.5763 48.1973 15.302 41.9229L11.032 37.6529C7.42701 34.0456 5.62335 32.2443 4.95368 29.9039C4.28168 27.5636 4.85568 25.0786 6.00368 20.1109L6.66401 17.2456C7.62768 13.0643 8.11068 10.9736 9.54101 9.54092C10.9737 8.11059 13.0643 7.62759 17.2457 6.66392L20.111 6.00125C25.081 4.85559 27.5637 4.28159 29.904 4.95125C32.2443 5.62325 34.048 7.42692 37.653 11.0319ZM26.0073 33.4319C24.437 31.8639 24.4487 29.6099 25.389 27.8249C25.1562 27.4887 25.0485 27.0815 25.0847 26.6741C25.1208 26.2668 25.2985 25.8849 25.5868 25.5949C25.8752 25.3049 26.256 25.125 26.6632 25.0865C27.0703 25.0481 27.4781 25.1534 27.8157 25.3843C28.609 24.9643 29.4793 24.7403 30.3473 24.7496C30.8115 24.7539 31.2549 24.9424 31.58 25.2737C31.9051 25.605 32.0853 26.0518 32.081 26.5159C32.0767 26.98 31.8882 27.4234 31.5569 27.7486C31.2256 28.0737 30.7788 28.2539 30.3147 28.2496C29.7744 28.2696 29.2638 28.5018 28.8937 28.8959C27.9907 29.7989 28.2263 30.7043 28.4807 30.9586C28.7373 31.2129 29.6403 31.4486 30.5433 30.5456C32.3727 28.7163 35.532 28.1096 37.555 30.1326C39.1253 31.7029 39.1137 33.9569 38.1733 35.7419C38.4047 36.0782 38.5112 36.4848 38.4744 36.8914C38.4376 37.2979 38.2598 37.6788 37.9719 37.9681C37.6839 38.2574 37.3039 38.437 36.8976 38.4757C36.4912 38.5145 36.0841 38.41 35.7467 38.1803C34.6996 38.7546 33.485 38.946 32.312 38.7216C31.8572 38.6281 31.4581 38.3578 31.2025 37.9701C30.947 37.5824 30.8559 37.1091 30.9493 36.6543C31.0428 36.1994 31.3131 35.8003 31.7008 35.5448C32.0885 35.2892 32.5618 35.1981 33.0167 35.2916C33.4297 35.3779 34.097 35.2426 34.6687 34.6709C35.5717 33.7656 35.336 32.8626 35.0817 32.6083C34.825 32.3539 33.922 32.1183 33.019 33.0213C31.1897 34.8506 28.0303 35.4573 26.0073 33.4319ZM23.38 24.0169C23.8133 23.5835 24.1569 23.069 24.3914 22.5027C24.6258 21.9365 24.7464 21.3296 24.7463 20.7168C24.7462 20.1039 24.6254 19.4971 24.3907 18.9309C24.1561 18.3648 23.8123 17.8504 23.3788 17.4171C22.9454 16.9838 22.4309 16.6402 21.8647 16.4057C21.2984 16.1713 20.6915 16.0507 20.0787 16.0508C19.4658 16.0509 18.859 16.1717 18.2928 16.4064C17.7267 16.641 17.2123 16.9848 16.779 17.4183C15.904 18.2936 15.4125 19.4807 15.4127 20.7184C15.4129 21.9561 15.9048 23.143 16.7802 24.0181C17.6555 24.8931 18.8426 25.3846 20.0803 25.3844C21.318 25.3842 22.505 24.8923 23.38 24.0169Z" fill="black"/>
</svg>
