<svg width="62" height="76" viewBox="0 0 62 76" fill="none" xmlns="http://www.w3.org/2000/svg">
<g clip-path="url(#clip0_11_29)">
<path d="M26.2208 0.890625C25.9786 0.35625 25.4135 0 24.7839 0H21.7161C21.0865 0 20.5052 0.35625 20.2792 0.890625L16.937 8.56484C16.4203 9.75234 14.5797 9.75234 14.063 8.56484L10.7208 0.890625C10.4786 0.35625 9.91354 0 9.28385 0H7.75C3.47135 0 0 3.19141 0 7.125V38H62V7.125C62 3.19141 58.5286 0 54.25 0H37.2161C36.5865 0 36.0052 0.35625 35.7792 0.890625L32.437 8.56484C31.9203 9.75234 30.0797 9.75234 29.563 8.56484L26.2208 0.890625ZM0 42.75V47.5C0 52.7398 4.63385 57 10.3333 57H20.6667V66.5C20.6667 71.7398 25.3005 76 31 76C36.6995 76 41.3333 71.7398 41.3333 66.5V57H51.6667C57.3661 57 62 52.7398 62 47.5V42.75H0ZM31 64.125C31.6851 64.125 32.3422 64.3752 32.8267 64.8206C33.3112 65.266 33.5833 65.8701 33.5833 66.5C33.5833 67.1299 33.3112 67.734 32.8267 68.1794C32.3422 68.6248 31.6851 68.875 31 68.875C30.3149 68.875 29.6578 68.6248 29.1733 68.1794C28.6888 67.734 28.4167 67.1299 28.4167 66.5C28.4167 65.8701 28.6888 65.266 29.1733 64.8206C29.6578 64.3752 30.3149 64.125 31 64.125Z" fill="#364DC0"/>
</g>
<defs>
<clipPath id="clip0_11_29">
<rect width="62" height="76" fill="white"/>
</clipPath>
</defs>
</svg>
