<svg width="77" height="76" viewBox="0 0 77 76" fill="none" xmlns="http://www.w3.org/2000/svg">
<path fill-rule="evenodd" clip-rule="evenodd" d="M27.7264 1.50098C20.2536 3.6377 13.61 7.9402 8.66357 13.8465C3.71714 19.7527 0.697817 26.9882 0 34.6076H17.6707C18.6951 23.0132 22.1149 11.7462 27.7209 1.49555L27.7264 1.50098ZM17.6707 41.3928H0C0.696358 49.0126 3.71439 56.2487 8.65985 62.1559C13.6053 68.0632 20.2482 72.3669 27.7209 74.5049C22.1149 64.2543 18.6951 52.9872 17.6707 41.3928ZM36.5783 75.9542C29.8789 65.5184 25.7738 53.6784 24.5954 41.3928H52.3991C51.2207 53.6784 47.1156 65.5184 40.4162 75.9542C39.1376 76.0153 37.8568 76.0153 36.5783 75.9542ZM49.2791 74.4995C56.7509 72.3618 63.3933 68.0589 68.3387 62.1527C73.2841 56.2465 76.3026 49.0116 77 41.3928H59.3293C58.3049 52.9872 54.8851 64.2543 49.2791 74.5049V74.4995ZM59.3293 34.6076H77C76.3036 26.9879 73.2856 19.7518 68.3401 13.8445C63.3947 7.93725 56.7517 3.63353 49.2791 1.49555C54.8853 11.7461 58.3051 23.0132 59.3293 34.6076ZM36.5783 0.0462177C37.8587 -0.0154059 39.1413 -0.0154059 40.4217 0.0462177C47.1192 10.4825 51.2224 22.3225 52.3991 34.6076H24.6009C25.7992 22.2476 29.9132 10.3978 36.5783 0.0462177Z" fill="#364DC0"/>
</svg>
