<svg width="59" height="74" viewBox="0 0 59 74" fill="none" xmlns="http://www.w3.org/2000/svg">
<path d="M33.7143 34.299V0L59 40.7L42.1429 62.9H16.8571L0 40.7L25.2857 0V34.299C23.6789 35.1135 22.4231 36.3707 21.713 37.8757C21.003 39.3807 20.8784 41.0494 21.3586 42.6228C21.8388 44.1963 22.897 45.5867 24.369 46.5784C25.841 47.5701 27.6446 48.1076 29.5 48.1076C31.3554 48.1076 33.159 47.5701 34.631 46.5784C36.103 45.5867 37.1612 44.1963 37.6414 42.6228C38.1216 41.0494 37.997 39.3807 37.287 37.8757C36.577 36.3707 35.3211 35.1135 33.7143 34.299ZM12.6429 66.6H46.3571V74H12.6429V66.6Z" fill="#364DC0"/>
</svg>
