<svg width="56" height="76" viewBox="0 0 56 76" fill="none" xmlns="http://www.w3.org/2000/svg">
<path d="M23.5611 0C33.6588 0 41.232 1.26559 46.2808 4.21862C51.7503 7.17166 54.2747 12.234 54.2747 19.4057C54.2747 23.6243 53.0125 27.421 51.3296 30.3741C50.3756 31.8166 49.1366 33.0475 47.6892 33.9908C46.2419 34.9341 44.617 35.5697 42.9149 35.8583C45.32 36.4216 47.6017 37.4225 49.6467 38.8113C51.3296 40.0769 53.0125 42.1862 54.2747 44.2955C55.5914 47.3513 56.1681 50.6762 55.9577 53.9983C56.1064 57.0461 55.5363 60.0861 54.2935 62.8714C53.0508 65.6568 51.1704 68.109 48.8052 70.0291C42.8159 74.3181 35.5343 76.4041 28.1892 75.9352H0V0H23.5611ZM25.2441 29.9522C29.8721 29.9522 33.238 29.5303 34.921 27.8429C37.0246 26.5773 37.8661 24.0461 37.8661 21.515C37.8661 18.5619 36.6039 16.4526 34.5002 15.187C32.3966 13.9214 29.0307 13.0777 24.4026 13.0777H15.9879V29.9522H25.2441ZM15.9879 42.6081V63.2793H26.5063C31.1343 63.2793 34.921 62.0137 36.6039 60.3263C38.7076 58.217 39.549 56.1077 39.549 52.7328C39.5992 51.4576 39.3602 50.1877 38.8501 49.0185C38.3399 47.8494 37.5719 46.8115 36.6039 45.983C34.5002 44.2955 31.1343 43.4518 26.0855 43.4518H15.5672L15.9879 42.6081Z" fill="#364DC0"/>
</svg>
