<svg width="76" height="73" viewBox="0 0 76 73" fill="none" xmlns="http://www.w3.org/2000/svg">
<path d="M72.96 0H3.04C1.3585 0 0 1.30488 0 2.92V70.08C0 71.6951 1.3585 73 3.04 73H72.96C74.6415 73 76 71.6951 76 70.08V2.92C76 1.30488 74.6415 0 72.96 0ZM38.1045 37.0566L19.8645 51.7479C19.3705 52.1494 18.62 51.8118 18.62 51.1912V45.4699C18.62 45.26 18.7245 45.0501 18.8955 44.9133L29.3265 36.5L18.8955 28.0868C18.8082 28.0205 18.7379 27.9358 18.6901 27.8393C18.6424 27.7428 18.6184 27.637 18.62 27.5301V21.8088C18.62 21.1882 19.3705 20.8506 19.8645 21.2521L38.1045 35.9342C38.475 36.2262 38.475 36.7646 38.1045 37.0566ZM57.38 51.1912C57.38 51.5928 57.057 51.9213 56.6675 51.9213H39.0925C38.703 51.9213 38.38 51.5928 38.38 51.1912V46.8113C38.38 46.4098 38.703 46.0813 39.0925 46.0813H56.6675C57.057 46.0813 57.38 46.4098 57.38 46.8113V51.1912Z" fill="#364DC0"/>
</svg>
