<svg width="75" height="73" viewBox="0 0 75 73" fill="none" xmlns="http://www.w3.org/2000/svg">
<path d="M0 0H75V73H58.9286V15.6429H0V0Z" fill="#364DC0"/>
<path fill-rule="evenodd" clip-rule="evenodd" d="M26.7857 73C33.8897 73 40.7028 70.2532 45.7261 65.3639C50.7494 60.4745 53.5714 53.8432 53.5714 46.9286C53.5714 40.014 50.7494 33.3827 45.7261 28.4933C40.7028 23.604 33.8897 20.8572 26.7857 20.8572C19.6817 20.8572 12.8686 23.604 7.84535 28.4933C2.82206 33.3827 0 40.014 0 46.9286C0 53.8432 2.82206 60.4745 7.84535 65.3639C12.8686 70.2532 19.6817 73 26.7857 73ZM26.7857 57.3572C29.6273 57.3572 32.3525 56.2585 34.3619 54.3027C36.3712 52.347 37.5 49.6944 37.5 46.9286C37.5 44.1628 36.3712 41.5102 34.3619 39.5545C32.3525 37.5988 29.6273 36.5 26.7857 36.5C23.9441 36.5 21.2189 37.5988 19.2096 39.5545C17.2003 41.5102 16.0714 44.1628 16.0714 46.9286C16.0714 49.6944 17.2003 52.347 19.2096 54.3027C21.2189 56.2585 23.9441 57.3572 26.7857 57.3572Z" fill="#364DC0"/>
</svg>
