<svg width="95" height="84" viewBox="0 0 95 84" fill="none" xmlns="http://www.w3.org/2000/svg">
<path d="M47.975 84C46.6292 84 45.5018 83.552 44.593 82.656C43.6842 81.76 43.2282 80.6524 43.225 79.3333C43.225 78.7889 43.3437 78.2242 43.5812 77.6393C43.8187 77.0544 44.175 76.5302 44.65 76.0667L66.6187 54.4833L63.175 51.1L41.325 72.6833C40.85 73.15 40.3354 73.5 39.7812 73.7333C39.2271 73.9667 38.6333 74.0833 38 74.0833C36.6542 74.0833 35.5268 73.6369 34.618 72.744C33.7092 71.8511 33.2532 70.742 33.25 69.4167C33.25 68.6389 33.3687 67.9964 33.6062 67.4893C33.8437 66.9822 34.1604 66.5358 34.5562 66.15L56.525 44.5667L53.2 41.3L31.2312 62.7667C30.7562 63.2333 30.2417 63.5833 29.6875 63.8167C29.1333 64.05 28.5 64.1667 27.7875 64.1667C26.5208 64.1667 25.4125 63.7 24.4625 62.7667C23.5125 61.8333 23.0375 60.7444 23.0375 59.5C23.0375 58.8778 23.1562 58.2944 23.3937 57.75C23.6312 57.2056 23.9875 56.7 24.4625 56.2333L46.4312 34.65L42.9875 31.3833L21.1375 52.9667C20.7417 53.3556 20.2667 53.6667 19.7125 53.9C19.1583 54.1333 18.4854 54.25 17.6937 54.25C16.3479 54.25 15.219 53.802 14.307 52.906C13.395 52.01 12.9406 50.9025 12.9437 49.5833C12.9437 48.9611 13.0625 48.3778 13.3 47.8333C13.5375 47.2889 13.8937 46.7833 14.3687 46.3167L40.85 20.3L58.6625 37.9167C59.5333 38.7722 60.5625 39.4536 61.75 39.9607C62.9375 40.4678 64.125 40.7198 65.3125 40.7167C67.8458 40.7167 70.0625 39.8425 71.9625 38.094C73.8625 36.3456 74.8125 34.1087 74.8125 31.3833C74.8125 30.2945 74.6146 29.1667 74.2187 28C73.8229 26.8333 73.1104 25.7445 72.0812 24.7333L50.825 3.85002C52.1708 2.60557 53.675 1.65357 55.3375 0.99402C57 0.334464 58.6625 0.00313064 60.325 1.95258e-05C62.3833 1.95258e-05 64.2833 0.331353 66.025 0.99402C67.7667 1.65669 69.35 2.68646 70.775 4.08335L90.8437 23.9167C92.2687 25.3167 93.3185 26.8722 93.993 28.5833C94.6675 30.2945 95.0032 32.2778 95 34.5333C95 36.0889 94.6437 37.6647 93.9312 39.2607C93.2187 40.8567 92.1896 42.3142 90.8437 43.6333L51.3 82.6C50.6667 83.2222 50.1125 83.6111 49.6375 83.7667C49.1625 83.9222 48.6083 84 47.975 84ZM7.24375 46.6667L4.15625 43.6333C2.81042 42.3889 1.78125 40.9111 1.06875 39.2C0.356249 37.4889 0 35.7 0 33.8333C0 31.8111 0.395833 29.9445 1.1875 28.2333C1.97917 26.5222 2.96875 25.0833 4.15625 23.9167L24.225 4.08335C25.4917 2.83891 26.9958 1.84646 28.7375 1.10602C30.4792 0.365575 32.1812 -0.00309158 33.8437 1.95258e-05C35.9812 1.95258e-05 37.8812 0.292464 39.5437 0.877352C41.2062 1.46224 42.8292 2.53091 44.4125 4.08335L68.7562 28C69.2312 28.4667 69.5875 28.9722 69.825 29.5167C70.0625 30.0611 70.1812 30.6445 70.1812 31.2667C70.1812 32.5111 69.7062 33.6 68.7562 34.5333C67.8062 35.4667 66.6979 35.9333 65.4312 35.9333C64.7187 35.9333 64.125 35.8369 63.65 35.644C63.175 35.4511 62.6604 35.0809 62.1062 34.5333L40.7312 13.7667L7.24375 46.6667Z" fill="#364DC0"/>
</svg>
