<svg width="91" height="81" viewBox="0 0 91 81" fill="none" xmlns="http://www.w3.org/2000/svg">
<path fill-rule="evenodd" clip-rule="evenodd" d="M46.8479 0.276673C46.4225 0.0943407 45.9607 0 45.4935 0C45.0262 0 44.5644 0.0943407 44.1391 0.276673L26.9768 7.64039L45.4804 15.5838L63.9971 7.63422L46.8479 0.276673ZM23.9016 31.9271V13.0922L42.222 20.9555V41.77L25.8056 34.7332C25.234 34.4882 24.7494 34.0933 24.4094 33.5957C24.0695 33.0982 23.8887 32.5189 23.8885 31.9271H23.9016ZM48.765 73.3217V52.7231L66.117 60.1731V80.9877L49.7202 73.9508C49.3621 73.7973 49.0428 73.5842 48.765 73.3217ZM72.66 81V60.1731L91 52.3037V71.1447C90.9998 71.7365 90.819 72.3158 90.479 72.8134C90.1391 73.3109 89.6544 73.7058 89.0829 73.9508L72.66 81ZM42.2089 52.7231V73.3464C41.9367 73.5977 41.6201 73.8022 41.2732 73.9508L24.8503 81V60.1731L42.2089 52.7231ZM18.3073 60.1731V80.9877L1.9171 73.9508C1.34556 73.7058 0.860897 73.3109 0.52096 72.8134C0.181023 72.3158 0.000173857 71.7365 0 71.1447V52.3099L18.3204 60.1731H18.3073ZM48.7519 41.7824V20.9493L67.0919 13.0799V31.9271C67.0917 32.5189 66.9109 33.0982 66.5709 33.5957C66.231 34.0933 65.7463 34.4882 65.1748 34.7332L48.7519 41.7824ZM68.0406 39.5005C68.466 39.3181 68.9278 39.2238 69.395 39.2238C69.8623 39.2238 70.3241 39.3181 70.7494 39.5005L87.8921 46.8519L69.3754 54.8015L50.8914 46.8519L68.0472 39.4881L68.0406 39.5005ZM20.2375 39.5005C20.6628 39.3181 21.1246 39.2238 21.5919 39.2238C22.0591 39.2238 22.521 39.3181 22.9463 39.5005L40.0889 46.8519L21.5788 54.8076L3.08175 46.8519L20.2375 39.5005Z" fill="#364DC0"/>
</svg>
