<svg width="27" height="27" viewBox="0 0 27 27" fill="none" xmlns="http://www.w3.org/2000/svg">
<path fill-rule="evenodd" clip-rule="evenodd" d="M1.45186 25.4934C1.09653 25.138 0.896477 24.6565 0.895713 24.1548C0.89495 23.653 1.09354 23.1721 1.44779 22.8179L19.5957 4.67001L9.89254 4.65525C9.40262 4.63721 8.93825 4.42974 8.59726 4.07654C8.25627 3.72334 8.06529 3.25198 8.06454 2.76179C8.0638 2.27159 8.25335 1.80082 8.59326 1.44866C8.93318 1.09649 9.39692 0.890431 9.88679 0.873884L24.1561 0.895589C24.6574 0.896663 25.1384 1.09669 25.4935 1.45173C25.8485 1.80678 26.0486 2.2878 26.0496 2.78915L26.0713 17.0584C26.0807 17.3124 26.0388 17.5654 25.9482 17.8025C25.8576 18.0395 25.7201 18.2558 25.5439 18.4383C25.3677 18.6208 25.1565 18.7659 24.9228 18.8648C24.6891 18.9638 24.4377 19.0145 24.1836 19.0142C23.9296 19.0138 23.678 18.9622 23.444 18.8626C23.21 18.7629 22.9984 18.6172 22.8216 18.4342C22.6449 18.2511 22.5067 18.0344 22.4154 17.7971C22.3241 17.5597 22.2814 17.3066 22.29 17.0527L22.2752 7.34957L4.12735 25.4974C3.7731 25.8517 3.2922 26.0503 2.79045 26.0495C2.2887 26.0487 1.80719 25.8487 1.45186 25.4934Z" fill="black"/>
</svg>
