<svg width="33" height="45" viewBox="0 0 33 45" fill="none" xmlns="http://www.w3.org/2000/svg">
<g clip-path="url(#clip0_313_59)">
<path d="M8.79053 44.8125C13.2451 44.8125 16.8604 41.4805 16.8604 37.375V29.9375H8.79053C4.33598 29.9375 0.720703 33.2695 0.720703 37.375C0.720703 41.4805 4.33598 44.8125 8.79053 44.8125Z" fill="#0ACF83"/>
<path d="M0.720703 22.5C0.720703 18.3945 4.33598 15.0625 8.79053 15.0625H16.8604V29.9375H8.79053C4.33598 29.9375 0.720703 26.6055 0.720703 22.5Z" fill="#A259FF"/>
<path d="M0.720703 7.625C0.720703 3.5195 4.33598 0.1875 8.79053 0.1875H16.8604V15.0625H8.79053C4.33598 15.0625 0.720703 11.7305 0.720703 7.625Z" fill="#F24E1E"/>
<path d="M16.8604 0.1875H24.9302C29.3847 0.1875 33 3.5195 33 7.625C33 11.7305 29.3847 15.0625 24.9302 15.0625H16.8604V0.1875Z" fill="#FF7262"/>
<path d="M33 22.5C33 26.6055 29.3847 29.9375 24.9302 29.9375C20.4756 29.9375 16.8604 26.6055 16.8604 22.5C16.8604 18.3945 20.4756 15.0625 24.9302 15.0625C29.3847 15.0625 33 18.3945 33 22.5Z" fill="#1ABCFE"/>
</g>
<defs>
<clipPath id="clip0_313_59">
<rect width="32.2793" height="44.625" fill="white" transform="translate(0.720703 0.1875)"/>
</clipPath>
</defs>
</svg>
