<svg width="48" height="51" viewBox="0 0 48 51" fill="none" xmlns="http://www.w3.org/2000/svg">
<g clip-path="url(#clip0_313_58)">
<path d="M8.37512 0.637695H38.919C43.5501 0.637695 47.2941 4.67506 47.2941 9.66908V41.3313C47.2941 46.3253 43.5501 50.3627 38.919 50.3627H8.37512C3.74399 50.3627 0 46.3253 0 41.3313V9.66908C0 4.67506 3.74399 0.637695 8.37512 0.637695Z" fill="#001E36"/>
<path d="M16.9471 13.2812C16.3559 13.2812 15.7648 13.2813 15.154 13.3028C14.5429 13.3239 13.9713 13.3239 13.4392 13.3454C12.9072 13.3665 12.4146 13.3665 11.9417 13.3876C11.4883 13.4087 11.1732 13.4087 10.838 13.4087C10.7002 13.4087 10.6411 13.4936 10.6411 13.6426V35.5089C10.6411 35.7001 10.7198 35.7854 10.8776 35.7854H14.7006C14.8385 35.7639 14.9371 35.6364 14.9172 35.4878V28.6665C15.2915 28.6665 15.5675 28.6665 15.7648 28.6876C15.9617 28.7087 16.2769 28.7088 16.7498 28.7088C18.3659 28.7088 19.8439 28.5175 21.1836 27.9864C22.4646 27.4764 23.5683 26.5839 24.3564 25.3938C25.1445 24.204 25.5388 22.6951 25.5388 20.8675C25.5388 19.9113 25.3814 18.9976 25.0858 18.1051C24.7728 17.1957 24.2821 16.3696 23.647 15.6826C22.8976 14.8976 21.9956 14.3022 21.0063 13.9399C19.9026 13.4936 18.5629 13.2812 16.9471 13.2812ZM17.3868 17.4668C18.0888 17.4812 18.7724 17.6135 19.4101 17.8924C19.9817 18.1262 20.4546 18.5514 20.7898 19.1036C21.1045 19.675 21.2617 20.3312 21.2431 20.9954C21.2431 21.9301 21.0458 22.6529 20.632 23.184C20.1982 23.7151 19.6466 24.1191 19.0162 24.3104C18.2869 24.5654 17.5183 24.6925 16.7498 24.6925H15.7053C15.4688 24.6925 15.2131 24.6714 14.9371 24.6503V17.5103C15.0749 17.4887 15.3509 17.4676 15.7452 17.4891C16.1195 17.4676 16.5725 17.4676 17.0849 17.4676C17.1858 17.4648 17.2867 17.4644 17.3868 17.4668ZM33.9139 18.5518C32.5146 18.5518 31.3519 18.7853 30.4259 19.2953C29.5787 19.7204 28.8493 20.4001 28.3568 21.25C27.9234 22.0365 27.6866 22.9075 27.6866 23.8215C27.6697 24.5733 27.8254 25.3179 28.1399 25.989C28.5086 26.7036 29.0203 27.3206 29.6378 27.7951C30.5048 28.4344 31.4454 28.9487 32.4359 29.3251C33.4014 29.7288 34.0517 30.0475 34.3672 30.3236C34.6824 30.6001 34.8402 30.8762 34.8402 31.1739C34.8402 31.5564 34.6233 31.9178 34.3081 32.0664C33.9534 32.2576 33.4214 32.364 32.6724 32.364C31.8843 32.364 31.0958 32.2576 30.3469 32.0453C29.487 31.8379 28.6625 31.4866 27.9035 31.0042C27.8443 30.9615 27.7852 30.9404 27.7261 30.983C27.667 31.0253 27.6474 31.1101 27.6474 31.1739V34.8714C27.6278 35.0415 27.7261 35.1901 27.8643 35.275C28.5033 35.597 29.1793 35.8257 29.8743 35.9551C30.7611 36.1464 31.6475 36.2312 32.5538 36.2312C33.9726 36.2312 35.1554 35.9978 36.1208 35.5515C37.0076 35.169 37.7761 34.5104 38.3278 33.6601C38.8442 32.8241 39.1123 31.8384 39.0963 30.834C39.1155 30.0753 38.9599 29.3233 38.6433 28.6454C38.2686 27.9226 37.7366 27.3278 37.0863 26.8815C36.1349 26.2374 35.1163 25.7166 34.0517 25.33C33.5762 25.1179 33.1094 24.8839 32.6525 24.6287C32.3964 24.4801 32.1599 24.2889 31.9826 24.055C31.8643 23.8849 31.7856 23.694 31.7856 23.5028C31.7856 23.3115 31.8448 23.0991 31.9431 22.929C32.0812 22.7166 32.2978 22.5676 32.5538 22.5039C32.9285 22.3979 33.3423 22.3337 33.7362 22.3549C34.4851 22.3549 35.2141 22.4612 35.9435 22.6314C36.6137 22.78 37.2441 23.0139 37.8352 23.3541C37.9139 23.3964 38.0126 23.3964 38.1899 23.3541C38.2208 23.3296 38.2459 23.2976 38.263 23.2606C38.2802 23.2236 38.2889 23.1827 38.2886 23.1414V19.6778C38.2886 19.5925 38.2686 19.5076 38.2491 19.4228C38.2095 19.3379 38.1308 19.2526 38.0521 19.2315C37.5087 18.9918 36.9392 18.8275 36.3573 18.7426C35.5482 18.6156 34.7316 18.552 33.9139 18.5518Z" fill="#31A8FF"/>
</g>
<defs>
<clipPath id="clip0_313_58">
<rect width="47.2941" height="51" fill="white"/>
</clipPath>
</defs>
</svg>
