<svg width="52" height="50" viewBox="0 0 52 50" fill="none" xmlns="http://www.w3.org/2000/svg">
<g clip-path="url(#clip0_313_66)">
<path d="M39.8125 0H12.1875C5.45653 0 0 5.24666 0 11.7188V38.2812C0 44.7533 5.45653 50 12.1875 50H39.8125C46.5435 50 52 44.7533 52 38.2812V11.7188C52 5.24666 46.5435 0 39.8125 0Z" fill="#330000"/>
<path d="M25.1334 29.7525H17.0734L15.4267 34.6484C15.3834 34.8359 15.2102 34.9609 15.0152 34.94H10.9417C10.7034 34.94 10.6384 34.815 10.7034 34.565L17.6802 15.2525C17.7452 15.0443 17.8102 14.815 17.8967 14.565C17.9834 14.1275 18.0267 13.6693 18.0267 13.2109C18.0052 13.1068 18.0917 13.0025 18.2002 12.9818H23.8117C23.9852 12.9818 24.0717 13.0443 24.0934 13.1484L32.0017 34.6068C32.0667 34.8359 32.0017 34.94 31.7852 34.94H27.2567C27.1052 34.9609 26.9534 34.8568 26.9102 34.7109L25.1334 29.7525ZM18.3302 25.5234H23.8334C23.7034 25.0859 23.5302 24.565 23.3352 24.0234C23.1402 23.4609 22.9452 22.8568 22.7502 22.2318C22.5334 21.5859 22.3384 20.9609 22.1217 20.315C21.9052 19.6693 21.7102 19.065 21.5367 18.4609C21.3634 17.8777 21.2117 17.3359 21.0602 16.8359H21.0167C20.8217 17.7318 20.5834 18.6277 20.2802 19.5234C19.9552 20.5234 19.6302 21.565 19.2834 22.6068C19.0036 23.5901 18.6856 24.563 18.3302 25.5234ZM36.8334 16.6275C36.1184 16.6484 35.4252 16.3775 34.9052 15.8984C34.4069 15.3775 34.1469 14.69 34.1684 13.9818C34.1469 13.2734 34.4284 12.6068 34.9484 12.1275C35.4684 11.6484 36.1619 11.3984 36.8769 11.3984C37.7219 11.3984 38.3719 11.6484 38.8484 12.1275C39.3286 12.6326 39.5851 13.2978 39.5634 13.9818C39.5852 14.69 39.3252 15.3775 38.8052 15.8984C38.3069 16.3984 37.5702 16.6693 36.8334 16.6275ZM34.4069 34.7109V18.6693C34.4069 18.4609 34.4934 18.3775 34.6884 18.3775H38.9784C39.1734 18.3775 39.2602 18.4818 39.2602 18.6693V34.7109C39.2602 34.94 39.1734 35.0443 38.9784 35.0443H34.7319C34.5152 35.0443 34.4069 34.9193 34.4069 34.7109Z" fill="#FF9A00"/>
</g>
<defs>
<clipPath id="clip0_313_66">
<rect width="52" height="50" fill="white"/>
</clipPath>
</defs>
</svg>
