<svg width="33" height="33" viewBox="0 0 33 33" fill="none" xmlns="http://www.w3.org/2000/svg">
<g clip-path="url(#clip0_397_609)">
<path d="M5.84384 0.412109H27.1562C30.3876 0.412109 33 3.02452 33 6.25595V26.7433C33 29.9747 30.3876 32.5871 27.1562 32.5871H5.84384C2.61241 32.5871 0 29.9747 0 26.7433V6.25595C0 3.02452 2.61241 0.412109 5.84384 0.412109Z" fill="#001E36"/>
<path d="M11.8249 8.59375C11.4124 8.59375 10.9999 8.59375 10.5737 8.60767C10.1473 8.62134 9.74847 8.62134 9.37722 8.63526C9.00597 8.64892 8.6623 8.64892 8.3323 8.66259C8.01597 8.67625 7.79605 8.67625 7.56222 8.67625C7.46605 8.67625 7.4248 8.73116 7.4248 8.82759V22.9763C7.4248 23.1001 7.47972 23.1553 7.58981 23.1553H10.2574C10.3536 23.1413 10.4224 23.0588 10.4085 22.9627V18.5489C10.6696 18.5489 10.8622 18.5489 10.9999 18.5626C11.1373 18.5762 11.3572 18.5763 11.6872 18.5763C12.8149 18.5763 13.8461 18.4525 14.781 18.1088C15.6748 17.7788 16.4449 17.2013 16.9948 16.4313C17.5447 15.6614 17.8198 14.6851 17.8198 13.5025C17.8198 12.8838 17.71 12.2926 17.5037 11.7151C17.2853 11.1267 16.9429 10.5921 16.4998 10.1476C15.9769 9.63959 15.3475 9.25439 14.6572 9.01991C13.8871 8.73116 12.9523 8.59375 11.8249 8.59375ZM12.1317 11.3021C12.6215 11.3114 13.0985 11.3969 13.5435 11.5774C13.9423 11.7287 14.2723 12.0038 14.5061 12.3612C14.7257 12.7309 14.8354 13.1555 14.8225 13.5853C14.8225 14.1901 14.6848 14.6578 14.3961 15.0014C14.0934 15.3451 13.7085 15.6065 13.2686 15.7303C12.7597 15.8953 12.2235 15.9775 11.6872 15.9775H10.9584C10.7934 15.9775 10.615 15.9638 10.4224 15.9502V11.3302C10.5186 11.3162 10.7111 11.3026 10.9862 11.3165C11.2474 11.3026 11.5635 11.3026 11.9211 11.3026C11.9914 11.3008 12.0618 11.3005 12.1317 11.3021ZM23.6636 12.0041C22.6873 12.0041 21.876 12.1552 21.2299 12.4852C20.6387 12.7603 20.1298 13.2001 19.7861 13.75C19.4837 14.2589 19.3185 14.8225 19.3185 15.4139C19.3067 15.9004 19.4154 16.3821 19.6348 16.8164C19.892 17.2788 20.2491 17.678 20.68 17.9851C21.2849 18.3987 21.9412 18.7315 22.6324 18.9751C23.3061 19.2362 23.7598 19.4425 23.98 19.6212C24.1999 19.8001 24.31 19.9787 24.31 20.1713C24.31 20.4188 24.1586 20.6527 23.9387 20.7488C23.6912 20.8726 23.32 20.9414 22.7974 20.9414C22.2475 20.9414 21.6973 20.8726 21.1747 20.7352C20.5747 20.601 19.9994 20.3737 19.4698 20.0615C19.4286 20.0339 19.3873 20.0203 19.3461 20.0478C19.3048 20.0752 19.2911 20.1301 19.2911 20.1713V22.5638C19.2775 22.6739 19.3461 22.7701 19.4425 22.825C19.8884 23.0333 20.36 23.1813 20.845 23.2651C21.4637 23.3888 22.0822 23.4437 22.7146 23.4437C23.7046 23.4437 24.5299 23.2927 25.2036 23.0039C25.8223 22.7564 26.3586 22.3303 26.7435 21.7801C27.1038 21.2392 27.2909 20.6013 27.2797 19.9514C27.2932 19.4605 27.1845 18.9739 26.9636 18.5353C26.7022 18.0676 26.331 17.6827 25.8772 17.3939C25.2134 16.9771 24.5027 16.6401 23.7598 16.39C23.428 16.2528 23.1023 16.1014 22.7835 15.9362C22.6048 15.8401 22.4398 15.7163 22.3161 15.565C22.2336 15.4549 22.1786 15.3314 22.1786 15.2077C22.1786 15.0839 22.2199 14.9465 22.2885 14.8364C22.3849 14.699 22.536 14.6026 22.7146 14.5613C22.9761 14.4928 23.2648 14.4512 23.5396 14.4649C24.0622 14.4649 24.5709 14.5337 25.0798 14.6438C25.5475 14.74 25.9873 14.8913 26.3998 15.1115C26.4547 15.1388 26.5236 15.1388 26.6473 15.1115C26.6689 15.0956 26.6863 15.0749 26.6983 15.051C26.7103 15.027 26.7164 15.0006 26.7161 14.9738V12.7327C26.7161 12.6775 26.7022 12.6226 26.6886 12.5677C26.661 12.5128 26.6061 12.4576 26.5511 12.4439C26.1719 12.2888 25.7746 12.1825 25.3686 12.1276C24.804 12.0454 24.2342 12.0043 23.6636 12.0041Z" fill="#31A8FF"/>
</g>
<defs>
<clipPath id="clip0_397_609">
<rect width="33" height="33" fill="white"/>
</clipPath>
</defs>
</svg>
