<svg width="32" height="32" viewBox="0 0 32 32" fill="none" xmlns="http://www.w3.org/2000/svg">
<g clip-path="url(#clip0_410_746)">
<mask id="mask0_410_746" style="mask-type:alpha" maskUnits="userSpaceOnUse" x="0" y="0" width="32" height="32">
<path fill-rule="evenodd" clip-rule="evenodd" d="M22.6918 31.7815C22.9465 31.8808 23.2188 31.9266 23.4919 31.9161C23.765 31.9056 24.0331 31.8391 24.2793 31.7205L30.8676 28.5503C31.2069 28.387 31.4932 28.1312 31.6935 27.8123C31.8939 27.4935 32.0001 27.1246 32.0001 26.748V5.25229C32.0002 4.87569 31.8939 4.50673 31.6936 4.18785C31.4932 3.86897 31.2069 3.61313 30.8676 3.44979L24.2793 0.280036C23.9071 0.100912 23.4883 0.0419361 23.081 0.11127C22.6738 0.180604 22.2981 0.374819 22.0061 0.667036L9.39359 12.1735L3.90009 8.00329C3.65228 7.81513 3.34641 7.71966 3.03557 7.73345C2.72472 7.74724 2.42852 7.86942 2.19834 8.07879L0.43634 9.68154C0.299027 9.80642 0.189293 9.9586 0.114158 10.1283C0.0390232 10.2981 0.000141572 10.4816 3.85889e-07 10.6672C-0.0001408 10.8528 0.0384616 11.0364 0.113338 11.2063C0.188215 11.3761 0.297717 11.5284 0.43484 11.6535L5.19909 16L0.43509 20.3468C0.298042 20.4719 0.188605 20.6242 0.113775 20.7941C0.0389449 20.9639 0.000367566 21.1474 0.000508738 21.333C0.000649909 21.5186 0.0395065 21.7021 0.114595 21.8718C0.189683 22.0415 0.299351 22.1936 0.43659 22.3185L2.19859 23.9213C2.42871 24.1307 2.72491 24.253 3.03577 24.2668C3.34663 24.2807 3.65252 24.1852 3.90034 23.997L9.39384 19.827L22.0063 31.3333C22.2014 31.5286 22.4346 31.6813 22.6918 31.7815ZM24.0048 8.73579L14.4351 16L24.0051 23.2645L24.0048 8.73579Z" fill="white"/>
</mask>
<g mask="url(#mask0_410_746)">
<path d="M30.8677 3.4552L24.2742 0.280204C23.9017 0.100962 23.4828 0.0419218 23.0754 0.111256C22.6679 0.180591 22.2921 0.37487 21.9999 0.667204L0.415414 20.347C0.278263 20.472 0.168734 20.6243 0.0938377 20.7941C0.0189414 20.964 -0.0196721 21.1476 -0.0195309 21.3332C-0.0193897 21.5188 0.019503 21.7023 0.0946577 21.872C0.169812 22.0417 0.279573 22.1939 0.416914 22.3187L2.17991 23.9215C2.41024 24.1309 2.7066 24.2531 3.0176 24.267C3.32861 24.2808 3.63465 24.1854 3.88266 23.9972L29.8754 4.27845C30.7474 3.61695 31.9999 4.23895 31.9999 5.33345V5.25695C31.9999 4.88048 31.8936 4.51165 31.6933 4.19287C31.493 3.8741 31.2068 3.61857 30.8677 3.4552Z" fill="#0065A9"/>
<g filter="url(#filter0_d_410_746)">
<path d="M30.8677 28.5457L24.2742 31.7202C23.9018 31.8995 23.4829 31.9587 23.0754 31.8894C22.668 31.8202 22.2921 31.626 21.9999 31.3337L0.415414 11.6537C0.278263 11.5287 0.168734 11.3764 0.0938377 11.2065C0.0189414 11.0367 -0.0196721 10.8531 -0.0195309 10.6675C-0.0193897 10.4819 0.019503 10.2984 0.0946577 10.1287C0.169812 9.95898 0.279573 9.80684 0.416914 9.68199L2.17991 8.07924C2.41024 7.86981 2.7066 7.74758 3.0176 7.73374C3.32861 7.7199 3.63465 7.81534 3.88266 8.00349L29.8754 27.722C30.7474 28.3837 31.9999 27.7617 31.9999 26.6672V26.7437C31.9999 27.1202 31.8936 27.489 31.6933 27.8078C31.493 28.1266 31.2068 28.3824 30.8677 28.5457Z" fill="#007ACC"/>
</g>
<g filter="url(#filter1_d_410_746)">
<path d="M24.2745 31.721C23.902 31.9001 23.483 31.9591 23.0756 31.8897C22.6681 31.8203 22.2922 31.626 22 31.3337C22.738 32.0717 24 31.549 24 30.5052V1.4955C24 0.451745 22.738 -0.0710047 22 0.667245C22.2922 0.374946 22.6681 0.180675 23.0756 0.1113C23.483 0.0419253 23.902 0.100875 24.2745 0.279995L30.8668 3.4505C31.2062 3.61374 31.4927 3.86952 31.6932 4.18841C31.8937 4.5073 32 4.87632 32 5.253V26.7485C32 27.1252 31.8937 27.4942 31.6932 27.8131C31.4927 28.132 31.2062 28.3878 30.8668 28.551L24.2745 31.721Z" fill="#1F9CF0"/>
</g>
<path opacity="0.25" fill-rule="evenodd" clip-rule="evenodd" d="M22.6724 31.7815C22.927 31.8808 23.1993 31.9266 23.4724 31.9161C23.7455 31.9056 24.0135 31.839 24.2597 31.7205L30.8479 28.5503C31.1873 28.3869 31.4736 28.1311 31.6739 27.8122C31.8743 27.4933 31.9805 27.1244 31.9804 26.7478V5.25229C31.9805 4.87569 31.8743 4.50673 31.6739 4.18785C31.4736 3.86897 31.1873 3.61313 30.8479 3.44979L24.2597 0.280036C23.8874 0.100912 23.4687 0.0419361 23.0614 0.11127C22.6541 0.180604 22.2785 0.374819 21.9864 0.667036L9.37394 12.1735L3.88044 8.00354C3.63262 7.81538 3.32676 7.71991 3.01592 7.7337C2.70507 7.74749 2.40886 7.86967 2.17869 8.07904L0.416687 9.68179C0.279408 9.8067 0.169705 9.95888 0.0945927 10.1286C0.0194799 10.2983 -0.0193897 10.4819 -0.0195309 10.6675C-0.019672 10.8531 0.0189183 11.0366 0.0937728 11.2065C0.168627 11.3763 0.278099 11.5287 0.415187 11.6538L5.17944 16L0.415437 20.3465C0.278314 20.4716 0.168812 20.624 0.0939357 20.7938C0.0190591 20.9637 -0.0195433 21.1473 -0.0194021 21.3329C-0.0192609 21.5185 0.0196208 21.702 0.0947556 21.8717C0.169891 22.0415 0.279624 22.1936 0.416937 22.3185L2.17894 23.9213C2.40908 24.1307 2.70528 24.2529 3.01612 24.2667C3.32697 24.2806 3.63285 24.1852 3.88069 23.997L9.37444 19.8268L21.9869 31.3333C22.1819 31.5286 22.4153 31.6813 22.6724 31.7815ZM23.9854 8.73554L14.4154 16L23.9854 23.2643V8.73554Z" fill="url(#paint0_linear_410_746)"/>
</g>
</g>
<defs>
<filter id="filter0_d_410_746" x="-8.35353" y="-0.601578" width="48.6875" height="40.8535" filterUnits="userSpaceOnUse" color-interpolation-filters="sRGB">
<feFlood flood-opacity="0" result="BackgroundImageFix"/>
<feColorMatrix in="SourceAlpha" type="matrix" values="0 0 0 0 0 0 0 0 0 0 0 0 0 0 0 0 0 0 127 0" result="hardAlpha"/>
<feOffset/>
<feGaussianBlur stdDeviation="4.167"/>
<feColorMatrix type="matrix" values="0 0 0 0 0 0 0 0 0 0 0 0 0 0 0 0 0 0 0.25 0"/>
<feBlend mode="overlay" in2="BackgroundImageFix" result="effect1_dropShadow_410_746"/>
<feBlend mode="normal" in="SourceGraphic" in2="effect1_dropShadow_410_746" result="shape"/>
</filter>
<filter id="filter1_d_410_746" x="13.666" y="-8.25099" width="26.668" height="48.503" filterUnits="userSpaceOnUse" color-interpolation-filters="sRGB">
<feFlood flood-opacity="0" result="BackgroundImageFix"/>
<feColorMatrix in="SourceAlpha" type="matrix" values="0 0 0 0 0 0 0 0 0 0 0 0 0 0 0 0 0 0 127 0" result="hardAlpha"/>
<feOffset/>
<feGaussianBlur stdDeviation="4.167"/>
<feColorMatrix type="matrix" values="0 0 0 0 0 0 0 0 0 0 0 0 0 0 0 0 0 0 0.25 0"/>
<feBlend mode="overlay" in2="BackgroundImageFix" result="effect1_dropShadow_410_746"/>
<feBlend mode="normal" in="SourceGraphic" in2="effect1_dropShadow_410_746" result="shape"/>
</filter>
<linearGradient id="paint0_linear_410_746" x1="15.9804" y1="0.0825356" x2="15.9804" y2="31.9175" gradientUnits="userSpaceOnUse">
<stop stop-color="white"/>
<stop offset="1" stop-color="white" stop-opacity="0"/>
</linearGradient>
<clipPath id="clip0_410_746">
<rect width="32" height="32" fill="white"/>
</clipPath>
</defs>
</svg>
