<svg width="32" height="32" viewBox="0 0 32 32" fill="none" xmlns="http://www.w3.org/2000/svg">
<path d="M12.8247 4.4248H5.79969C4.39969 4.4248 3.24969 5.5748 3.24969 6.9998C3.19969 8.3748 4.29969 9.5248 5.67469 9.5748H12.8997L12.8247 4.4248Z" fill="#073042"/>
<path d="M28.75 27.3246H5.8C4.375 27.3246 3.25 26.1746 3.25 24.7496V6.97461C3.25 8.39961 4.4 9.54961 5.8 9.57461H25.025C25.025 9.57461 28.775 9.24961 28.775 12.0746V27.3246H28.75Z" fill="#4285F4"/>
<path d="M18.0502 18.2247C19.0752 17.4497 19.2752 15.9997 18.5002 14.9997C18.0752 14.4497 17.4252 14.0997 16.7252 14.0747H16.8002C16.9252 14.0497 17.0752 14.0497 17.2002 14.0747V12.6497C17.2002 12.4747 17.1252 12.3247 16.9752 12.2497C16.7502 12.1247 16.4752 12.1997 16.3502 12.4247C16.3002 12.4997 16.2752 12.5747 16.3002 12.6747V14.1247C15.0502 14.3247 14.1752 15.4997 14.3752 16.7747V16.7997C14.4752 17.3997 14.8002 17.9497 15.3002 18.2997L11.0752 27.3497H13.8252L15.7752 23.1997C16.0002 22.6997 16.6002 22.4747 17.1252 22.7247C17.3252 22.8247 17.5002 22.9997 17.6002 23.1997L19.6252 27.3497H22.4252L18.0502 18.2247ZM16.6252 17.8247C15.8252 17.8247 15.2002 17.1747 15.2002 16.3747C15.2002 15.5747 15.8502 14.9497 16.6502 14.9747C17.0252 14.9747 17.3502 15.1247 17.6252 15.3747C18.2002 15.9247 18.2002 16.8247 17.6502 17.3997C17.4002 17.6497 17.0252 17.8247 16.6252 17.8247Z" fill="#3870B2"/>
<path d="M11.2998 5.6748H21.1498V7.4748H11.2998V5.6748Z" fill="white"/>
<path d="M15.8746 14.9503C16.6496 14.9503 17.2996 15.6003 17.2746 16.4003C17.2746 17.1753 16.6246 17.8253 15.8246 17.8003C15.0496 17.8003 14.4246 17.1503 14.4246 16.3753C14.4246 16.0003 14.5746 15.6503 14.8496 15.3753C15.1246 15.1003 15.4996 14.9503 15.8746 14.9503ZM16.4246 14.1253V12.6253C16.4246 12.4503 16.3496 12.3003 16.1996 12.2253C15.9746 12.1003 15.6996 12.1753 15.5746 12.4003C15.5246 12.4753 15.4996 12.5503 15.5246 12.6503V14.1003C14.2746 14.3003 13.3996 15.4753 13.5996 16.7503V16.7753C13.6996 17.3753 14.0246 17.9253 14.5246 18.2753L9.19958 29.7003C8.99958 30.1003 9.02458 30.6003 9.29958 30.9753C9.69958 31.5503 10.4746 31.7003 11.0496 31.3003C11.2496 31.1753 11.3996 30.9753 11.4996 30.7753L15.0496 23.1753C15.2746 22.6753 15.8746 22.4503 16.3996 22.7003C16.5996 22.8003 16.7746 22.9753 16.8746 23.1753L20.4996 30.7003C20.7996 31.3253 21.5496 31.5753 22.1746 31.2753C22.7996 30.9753 23.0496 30.2253 22.7496 29.6003L17.2746 18.2253C18.2746 17.4253 18.4496 15.9503 17.6496 14.9503C17.3496 14.5503 16.9246 14.2753 16.4246 14.1253Z" fill="#073042"/>
<path d="M19.6996 7.275C19.3246 7.275 19.0246 7 19.0246 6.625C19.0246 6.45 19.0996 6.25 19.2246 6.125C19.4996 5.875 19.8996 5.875 20.1746 6.125C20.2996 6.25 20.3746 6.425 20.3746 6.6C20.3496 6.975 20.0746 7.25 19.6996 7.275ZM12.2996 7.25C11.9246 7.25 11.6246 6.95 11.6246 6.6C11.6246 6.425 11.6996 6.25 11.8246 6.125C12.0496 5.85 12.4746 5.8 12.7496 6.025H12.7746C13.0496 6.275 13.0746 6.7 12.8246 6.975L12.7496 7.075C12.6246 7.2 12.4496 7.275 12.2746 7.275M19.8996 3.225L21.2246 0.925C21.2996 0.8 21.2496 0.65 21.1496 0.55C21.0246 0.5 20.8996 0.525 20.8246 0.625L19.4496 3C17.2496 2.025 14.7496 2.025 12.5746 3L11.2246 0.65C11.1746 0.575 11.0746 0.5 10.9746 0.5C10.8746 0.5 10.7746 0.55 10.7246 0.65C10.6746 0.725 10.6746 0.85 10.7246 0.925L12.0746 3.225C9.72461 4.5 8.19961 6.9 7.97461 9.55H24.0246C23.8246 6.875 22.2746 4.5 19.9246 3.225" fill="#3DDC84"/>
<path d="M26.4 14.5252H25.35C25.3 14.5502 25.25 14.6002 25.25 14.6752V31.3002C25.25 31.3752 25.3 31.4252 25.375 31.4252H26.475C27.75 31.4252 28.775 30.3752 28.775 29.1252V12.2002C28.775 13.4752 27.75 14.5002 26.475 14.5002H26.4V14.5252Z" fill="#073042"/>
</svg>
