<svg width="32" height="32" viewBox="0 0 32 32" fill="none" xmlns="http://www.w3.org/2000/svg">
<g clip-path="url(#clip0_410_743)">
<path d="M5.66675 0.400391H26.3333C29.4665 0.400391 32 2.93364 32 6.06714V25.9336C32 29.0669 29.4668 31.6004 26.3333 31.6004H5.66675C2.5335 31.6004 0 29.0671 0 25.9336V6.06714C0 2.93389 2.53325 0.400391 5.66675 0.400391Z" fill="#470137"/>
<path d="M26.3995 22.4H23.9063C23.8528 22.4133 23.7863 22.3868 23.7463 22.3468C23.7092 22.2993 23.682 22.2449 23.6663 22.1868C23.442 21.2426 23.2287 20.2959 23.0263 19.3468C22.8528 18.52 22.7063 17.8268 22.5995 17.2533C22.5094 16.7682 22.4161 16.2838 22.3195 15.8C22.2528 15.4 22.1863 15.0668 22.1463 14.7868H22.1328C21.9995 15.3733 21.8795 15.9468 21.7595 16.4933C21.6528 17.04 21.5195 17.6 21.3863 18.16C21.2528 18.72 21.1063 19.3333 20.9328 20C20.7728 20.6668 20.5863 21.4 20.3863 22.1868C20.3595 22.3335 20.2928 22.4 20.1728 22.4H17.6795C17.6128 22.4135 17.5463 22.3868 17.4928 22.36C17.4528 22.32 17.4263 22.2668 17.3995 22.2135L14.7995 11.9068C14.7595 11.7868 14.8128 11.7333 14.9595 11.7333H17.4795C17.5995 11.7333 17.6663 11.7733 17.6795 11.8668C17.9463 13.04 18.1728 14.0533 18.3463 14.9068C18.5195 15.76 18.6663 16.48 18.7595 17.08C18.8528 17.68 18.9463 18.1733 19.0128 18.5468C19.0795 18.92 19.1328 19.24 19.1728 19.48H19.2128C19.2395 19.2665 19.2663 19.0668 19.3063 18.8533C19.3595 18.6 19.4263 18.2665 19.5063 17.8533C19.5863 17.44 19.6795 16.96 19.7995 16.4C19.9195 15.84 20.0528 15.2 20.2128 14.4533C20.3595 13.72 20.5728 12.88 20.8263 11.9333C20.8263 11.88 20.8528 11.8133 20.8795 11.76C20.8928 11.7333 20.9463 11.72 21.0263 11.72H23.6395C23.7195 11.72 23.7595 11.7733 23.7728 11.8665C23.97 12.7184 24.1611 13.5718 24.346 14.4265C24.4928 15.16 24.626 15.8133 24.746 16.3865C24.8528 16.9465 24.946 17.44 24.9995 17.84C25.0528 18.2533 25.1195 18.5865 25.1728 18.8665C25.2128 19.0933 25.2528 19.32 25.266 19.5465H25.306C25.3728 19.28 25.426 18.96 25.4795 18.6C25.533 18.24 25.5995 17.84 25.6928 17.3865C25.7728 16.9333 25.866 16.44 25.9728 15.8933C26.066 15.3465 26.1995 14.7465 26.346 14.0665C26.4928 13.4 26.6528 12.6665 26.8395 11.88C26.866 11.76 26.9195 11.7065 27.0128 11.7065H29.346C29.466 11.7065 29.506 11.7733 29.4793 11.8933L26.5993 22.1733C26.586 22.2265 26.5593 22.28 26.5193 22.32C26.5193 22.3865 26.4663 22.4133 26.3995 22.4ZM3.03978 22.2668V8.66676C3.02653 8.58676 3.09303 8.50676 3.17303 8.49326H3.18653C3.48391 8.47475 3.78182 8.46591 4.07978 8.46676C4.47978 8.45326 4.93303 8.45326 5.46653 8.44001C5.99978 8.42676 6.55978 8.42676 7.15978 8.42676C8.78653 8.42676 10.1465 8.72001 11.213 9.30676C12.2395 9.85328 13.0798 10.6935 13.6263 11.72C14.1598 12.7468 14.4263 13.92 14.4263 15.2533C14.4398 16.1865 14.3063 17.1065 14.013 17.9865C13.7589 18.735 13.3703 19.4308 12.8663 20.0398C12.3998 20.5998 11.8398 21.0798 11.2263 21.4665C10.6263 21.8398 9.95978 22.1198 9.26628 22.3065C8.59591 22.482 7.90598 22.5716 7.21303 22.5733H5.70628C5.17303 22.5733 4.66628 22.5733 4.21303 22.5598C3.74628 22.5465 3.39978 22.5465 3.17303 22.5333C3.07978 22.5333 3.03978 22.4533 3.03978 22.3198V22.2668ZM5.85303 11.0135V19.9068C5.99978 19.9068 6.13303 19.9068 6.26628 19.92C6.38628 19.9333 6.51978 19.9333 6.63978 19.9468C6.77303 19.96 6.91978 19.96 7.07978 19.96C7.69303 19.9733 8.30628 19.8668 8.89303 19.6533C9.42628 19.4668 9.89303 19.16 10.293 18.7468C10.6921 18.3222 10.9966 17.8177 11.1863 17.2668C11.3998 16.6268 11.5063 15.9468 11.5063 15.2668C11.5198 14.6268 11.413 13.9868 11.1998 13.3868C11.0159 12.8731 10.7136 12.4099 10.3176 12.0347C9.92147 11.6594 9.44264 11.3827 8.91978 11.2268C8.34628 11.0533 7.75978 10.96 7.15978 10.9733C6.89303 10.9733 6.66628 10.9733 6.47978 10.9868C6.29303 10.9868 6.07978 11 5.85303 11.0133V11.0135Z" fill="#FF61F6"/>
</g>
<defs>
<clipPath id="clip0_410_743">
<rect width="32" height="32" fill="white"/>
</clipPath>
</defs>
</svg>
