<svg width="32" height="32" viewBox="0 0 32 32" fill="none" xmlns="http://www.w3.org/2000/svg">
<g clip-path="url(#clip0_410_741)">
<path d="M26.6836 24.5405C26.6836 25.1402 31.3396 25.4829 31.0825 24.3978C30.7112 22.5702 27.1978 22.713 26.6836 24.5405ZM6.83113 27.7102C7.88801 28.624 9.48763 27.5103 10.0018 26.2253C8.97351 24.8832 5.17432 26.311 6.83113 27.7102ZM26.1123 25.797C24.7984 26.9963 26.3409 28.2528 27.6263 27.4246C27.969 27.1962 27.5977 26.0825 26.1123 25.797ZM22.4275 21.5136C25.2269 19.5433 35.5101 18.5438 30.7684 13.8036L18.5712 1.32477C17.0573 -0.103047 14.5722 -0.103047 13.1724 1.32477L1.40395 13.3753C-3.05218 17.83 4.28895 17.4587 6.94545 19.1435C8.17376 19.9431 3.00357 20.9711 4.06045 22.0276C5.08876 23.0842 10.2589 24.0551 11.2873 25.0831C12.3156 26.1396 9.20207 27.2533 10.2304 28.3099C11.2301 29.3665 13.6296 28.367 14.0581 30.7657C14.3723 32.5361 18.457 31.6509 20.2851 30.1375C21.4278 29.1666 18.3142 29.1666 19.3425 28.11C21.9133 25.5115 24.1985 26.9392 25.1411 24.5406C25.6553 23.2556 21.2564 22.3418 22.4275 21.5136ZM12.294 20.7069C11.5384 20.3667 10.2801 20.6491 9.64257 20.181C9.23813 19.884 9.8872 19.8011 10.9865 19.6578C12.5795 19.4503 15.0384 20.26 15.4565 20.4753C15.8746 20.6906 15.927 20.8224 15.927 20.8224C16.3373 22.4332 14.1077 21.5233 12.294 20.7069ZM20.3709 6.60752L19.9138 9.37752L17.9999 8.34939L14.8864 10.3197L13.8581 6.17914L12.2013 9.7772L8.05945 9.74864C7.25963 9.74864 7.37388 8.92052 8.20226 8.09239C9.83038 6.29339 13.0011 3.23795 14.0009 2.18139C15.0292 1.12483 16.8288 1.15333 17.8571 2.18139L22.5131 6.92164C22.9416 7.34995 22.9416 8.2352 22.6845 8.49214L20.3709 6.60752Z" fill="white"/>
</g>
<defs>
<clipPath id="clip0_410_741">
<rect width="32" height="32" fill="white"/>
</clipPath>
</defs>
</svg>
