<svg width="32" height="32" viewBox="0 0 32 32" fill="none" xmlns="http://www.w3.org/2000/svg">
<g clip-path="url(#clip0_399_643)">
<path d="M0 0H32V32H0V0Z" fill="#FF0066"/>
<path d="M10.8888 10.2975C11.9009 10.2828 12.7109 9.45291 12.7012 8.44066C12.6913 7.42829 11.8654 6.61429 10.853 6.61916C9.84066 6.62404 9.02266 7.44591 9.02253 8.45829C9.02336 8.70187 9.07239 8.94288 9.1668 9.16743C9.26122 9.39198 9.39914 9.59561 9.57263 9.7666C9.74611 9.93759 9.95173 10.0725 10.1776 10.1637C10.4035 10.2548 10.6452 10.3002 10.8888 10.2975ZM7.01928 20.1447C6.91335 20.5976 6.85801 21.0608 6.85428 21.5259C6.85428 23.145 7.73228 24.2202 9.59853 24.2202C11.146 24.2202 12.4017 23.3012 13.3042 21.8164L12.7524 24.0308H15.8244L17.5819 16.9908C18.0209 15.2064 18.8708 14.281 20.161 14.281C21.176 14.281 21.8072 14.912 21.8072 15.9553C21.8122 16.2897 21.7659 16.6229 21.6702 16.9434L20.7652 20.1805C20.6357 20.6263 20.5711 21.0885 20.5733 21.5527C20.5733 23.0887 21.4783 24.2152 23.3713 24.2152C24.9905 24.2152 26.2808 23.1732 26.9938 20.6759L25.7867 20.2087C25.1825 21.8829 24.6617 22.1849 24.2507 22.1849C23.8398 22.1849 23.6183 21.9112 23.6183 21.3619C23.6301 21.0737 23.6761 20.788 23.7553 20.5107L24.6347 17.3557C24.8321 16.707 24.9339 16.033 24.9368 15.3549C24.9368 12.9945 23.5095 11.7633 21.7803 11.7633C20.161 11.7633 18.515 13.2237 17.6919 14.761L18.2948 12.0013H13.6035L12.9444 14.4333H15.1409L13.7893 19.84C12.7268 22.2004 10.7762 22.2388 10.5317 22.1838C10.1297 22.0928 9.87366 21.9405 9.87366 21.4157C9.88541 20.9908 9.94991 20.569 10.0657 20.16L12.1239 11.9949H6.91178L6.25391 14.4269H8.42091L7.01928 20.1447Z" fill="white"/>
</g>
<defs>
<clipPath id="clip0_399_643">
<rect width="32" height="32" fill="white"/>
</clipPath>
</defs>
</svg>
