<svg width="32" height="32" viewBox="0 0 32 32" fill="none" xmlns="http://www.w3.org/2000/svg">
<g clip-path="url(#clip0_411_8)">
<path d="M6.52612 25.474L1.05163 19.9995C0.40225 19.3339 0 18.3927 0 17.4729C0 17.047 0.24 16.3812 0.421125 16.0001L5.4745 5.47461L6.52612 25.474Z" fill="#01579B"/>
<path d="M25.2642 6.52612L19.7897 1.05163C19.3122 0.571625 18.3169 0 17.4747 0C16.7502 0 16.0397 0.145875 15.5809 0.421125L5.47656 5.4745L25.2642 6.52612ZM13.0519 32H26.3158V26.3161L16.4208 23.1566L7.36806 26.3161L13.0519 32Z" fill="#40C4FF"/>
<path d="M5.47461 22.5264C5.47461 24.2155 5.68636 24.6296 6.52623 25.4741L7.36848 26.3164H26.3162L17.0541 15.7909L5.47461 5.47461V22.5264Z" fill="#29B6F6"/>
<path d="M22.3169 5.47168H5.47461L26.3162 26.3133H32.0001V13.2612L25.2622 6.5233C24.3165 5.57518 23.4766 5.47168 22.3169 5.47168Z" fill="#01579B"/>
<path opacity="0.2" d="M6.73777 25.6835C5.89552 24.839 5.68615 24.0061 5.68615 22.5264V5.68398L5.47677 5.47461V22.5262C5.47427 24.006 5.47427 24.4154 6.73777 25.6834L7.36827 26.3139L6.73777 25.6835Z" fill="white"/>
<path opacity="0.2" d="M31.7903 13.0527V26.1049H26.1064L26.3158 26.3166H31.9997V13.2621L31.7903 13.0527Z" fill="#263238"/>
<path opacity="0.2" d="M25.2642 6.52623C24.2197 5.48161 23.3657 5.47461 22.1071 5.47461H5.47656L5.68594 5.68398H22.1071C22.7352 5.68398 24.3208 5.57811 25.2642 6.52623Z" fill="white"/>
<path opacity="0.2" d="M31.7903 13.0522L25.2642 6.526L19.7897 1.05175C19.3122 0.571625 18.317 0 17.4747 0C16.7502 0 16.0397 0.145875 15.581 0.421125L5.47658 5.4745L0.423203 16C0.241953 16.3835 0.00195312 17.0492 0.00195312 17.4727C0.00195312 18.3926 0.406703 19.3312 1.0537 19.9994L6.09758 25.0081C6.21758 25.1563 6.35883 25.3069 6.52583 25.4739L6.7352 25.6833L7.3657 26.3137L12.8402 31.7882L13.0496 31.9976H26.311V26.3139H31.9948V13.2615L31.7903 13.0522Z" fill="url(#paint0_radial_411_8)"/>
</g>
<defs>
<radialGradient id="paint0_radial_411_8" cx="0" cy="0" r="1" gradientUnits="userSpaceOnUse" gradientTransform="translate(1599.65 1599.71) scale(1599.77 1599.77)">
<stop stop-color="white" stop-opacity="0.1"/>
<stop offset="1" stop-color="white" stop-opacity="0"/>
</radialGradient>
<clipPath id="clip0_411_8">
<rect width="32" height="32" fill="white"/>
</clipPath>
</defs>
</svg>
