<svg width="31" height="31" viewBox="0 0 31 31" fill="none" xmlns="http://www.w3.org/2000/svg">
<g clip-path="url(#clip0_400_676)">
<path d="M15.5 31C24.0604 31 31 24.0604 31 15.5C31 6.93959 24.0604 0 15.5 0C6.93959 0 0 6.93959 0 15.5C0 24.0604 6.93959 31 15.5 31Z" fill="white"/>
<mask id="mask0_400_676" style="mask-type:luminance" maskUnits="userSpaceOnUse" x="0" y="0" width="31" height="31">
<path d="M15.5 31C24.0604 31 31 24.0604 31 15.5C31 6.93959 24.0604 0 15.5 0C6.93959 0 0 6.93959 0 15.5C0 24.0604 6.93959 31 15.5 31Z" fill="white"/>
</mask>
<g mask="url(#mask0_400_676)">
<path d="M22.2317 1.39016C20.193 0.421285 17.9121 -0.121094 15.5045 -0.121094C11.3045 -0.121094 7.48989 1.52917 4.67385 4.21661C1.67993 7.07393 27.5309 3.90903 22.2317 1.39028" fill="#FCC397"/>
<path d="M27.7789 5.77921C27.7968 5.80161 26.4991 7.53592 22.5992 8.02829C14.7275 9.0221 1.21296 9.12709 1.23342 9.08241C2.06534 7.25665 3.23889 5.60693 4.69077 4.22219C6.38923 4.75258 8.23797 4.88457 9.98668 4.56246C12.874 4.03413 15.4428 2.36582 18.2989 1.68588C19.5665 1.38133 20.9477 1.29232 22.2485 1.39574C24.41 2.42298 26.2992 3.93011 27.7789 5.77921Z" fill="#FC9F95"/>
<path d="M30.9956 13.1195C31.0055 13.1828 13.2448 14.8523 4.59136 14.3656C1.77181 14.2071 0.107984 12.5024 0.127116 12.4096C0.361868 11.2644 0.724811 10.1493 1.20909 9.08542C3.70907 7.71706 6.65032 6.92729 9.50244 6.95841C13.0789 6.9951 16.5876 8.18751 20.1643 8.09863C22.8203 8.03106 25.4976 7.18328 27.7544 5.78223C29.4178 7.86092 30.5633 10.3717 30.9956 13.1195Z" fill="#F77C88"/>
<path d="M31.137 15.4892C31.137 15.5761 31.1349 15.7495 31.1349 15.7495C31.1349 15.7495 26.2019 16.9937 19.8487 16.9195C10.9501 16.8155 -0.24243 15.3802 -0.242187 15.3538C-0.233348 14.3129 -0.123273 13.296 0.0789531 12.3127C2.21093 13.6282 4.7964 14.2724 7.285 14.0013C9.26379 13.7869 11.1435 13.0547 12.9762 12.2754C14.8088 11.4961 16.631 10.6593 18.5682 10.2096C21.4137 9.5506 24.4577 9.78068 27.1779 10.8528C28.5014 11.3748 29.8144 12.125 30.9454 13.0297C31.0732 13.8433 31.1373 14.6656 31.137 15.4892Z" fill="#F25192"/>
<path d="M13.3438 20.5885C8.63653 21.4578 0.558121 20.4551 0.537777 20.3931C0.0316055 18.8516 -0.242188 17.2047 -0.242188 15.494C-0.242188 15.4489 -0.241945 15.4037 -0.241582 15.3587C0.472992 14.7919 1.30769 14.2867 2.12253 13.8941C4.13802 12.9162 6.42499 12.5082 8.65433 12.7279C10.8577 12.9476 12.9619 13.7634 14.9982 14.642C16.7137 15.3823 18.4182 16.182 20.1989 16.7345C20.3733 16.7885 18.5254 19.6316 13.3438 20.5885Z" fill="#D34CA3"/>
<path d="M30.5909 19.72C30.2622 20.2751 27.1361 22.1452 22.8984 22.4655C17.2875 22.8895 10.6591 21.1935 12.8579 20.3303C16.3196 18.9706 19.3219 16.5282 22.8984 15.5084C25.5702 14.7431 28.5319 14.8639 31.1548 15.7888C31.1341 17.1178 30.9446 18.4388 30.5909 19.72Z" fill="#9A50A5"/>
<path d="M29.1345 23.319C26.4253 28.0226 6.77603 29.2022 3.9055 26.0381C2.44439 24.4276 1.31325 22.5119 0.619141 20.3982C3.03218 19.0189 5.85693 18.4333 8.57197 18.8046C12.0859 19.2857 15.2343 21.247 18.7012 22.0105C21.4997 22.6276 24.4655 22.4341 27.1596 21.4614C28.3776 21.0182 29.5851 20.4244 30.6531 19.6903C30.3021 20.9591 29.7918 22.1783 29.1345 23.319Z" fill="#59569E"/>
<path d="M29.0695 23.2534C26.366 27.9786 21.2756 31.1628 15.4415 31.1628C10.8321 31.1628 6.68693 29.1752 3.81641 26.0103C4.29267 26.1923 4.82548 26.3497 5.31385 26.4873C8.04452 27.2405 10.9841 27.2195 13.6991 26.4193C15.4379 25.9067 17.0721 25.0909 18.7795 24.4737C22.0374 23.2989 25.6233 22.8853 29.0695 23.2534Z" fill="#39477F"/>
</g>
</g>
<defs>
<clipPath id="clip0_400_676">
<rect width="31" height="31" fill="white"/>
</clipPath>
</defs>
</svg>
