<svg width="25" height="32" viewBox="0 0 25 32" fill="none" xmlns="http://www.w3.org/2000/svg">
<g clip-path="url(#clip0_400_711)">
<path d="M8.06159 24.7375C8.06159 24.7375 6.77273 25.4473 8.97888 25.6875C11.6516 25.9762 13.0176 25.9349 15.963 25.4069C15.963 25.4069 16.7374 25.8667 17.8187 26.2651C11.2161 28.945 2.87546 26.1098 8.06159 24.7375ZM7.25476 21.2402C7.25476 21.2402 5.80915 22.2537 8.01696 22.4699C10.872 22.7489 13.1267 22.7717 17.0283 22.0602C17.0283 22.0602 17.5679 22.5783 18.4165 22.8617C10.4334 25.0725 1.54167 23.036 7.25476 21.2402Z" fill="#5382A1"/>
<path d="M14.0567 15.3078C15.6836 17.0817 13.6292 18.678 13.6292 18.678C13.6292 18.678 17.7602 16.6584 15.863 14.1293C14.0912 11.7709 12.7323 10.5989 20.0884 6.55859C20.0884 6.55859 8.54175 9.28978 14.0567 15.3078Z" fill="#E76F00"/>
<path d="M22.7898 27.3237C22.7898 27.3237 23.7436 28.0679 21.7393 28.6437C17.9281 29.7372 5.87678 30.0674 2.52893 28.6873C1.32551 28.1916 3.58234 27.5035 4.29221 27.359C5.03254 27.207 5.45568 27.2354 5.45568 27.2354C4.1173 26.3424 -3.195 28.9886 1.74143 29.7463C15.2036 31.8139 26.2817 28.8154 22.7898 27.3237ZM8.68195 17.6162C8.68195 17.6162 2.55197 18.9952 6.51125 19.4958C8.18293 19.7078 11.5154 19.6599 14.6196 19.4135C17.1566 19.2109 19.7039 18.78 19.7039 18.78C19.7039 18.78 18.8094 19.1428 18.1622 19.5613C11.9372 21.1118 -0.0883591 20.3905 3.37365 18.8045C6.30148 17.4642 8.68195 17.6162 8.68195 17.6162ZM19.6786 23.4374C26.0068 20.3233 23.0809 17.3306 21.0387 17.7339C20.5381 17.8324 20.315 17.9179 20.315 17.9179C20.315 17.9179 20.5008 17.6423 20.8557 17.523C24.8957 16.1778 28.0029 21.4903 19.5515 23.5944C19.5515 23.5945 19.6494 23.5116 19.6786 23.4374Z" fill="#5382A1"/>
<path d="M15.8631 0.0342722C15.8631 0.0342722 19.3677 3.3545 12.5392 8.4598C7.06347 12.5552 11.2905 14.8903 12.5369 17.5582C9.34062 14.8272 6.99491 12.4229 8.56864 10.1853C10.8783 6.90049 17.277 5.30808 15.8631 0.0342722Z" fill="#E76F00"/>
<path d="M9.30361 31.8764C15.3777 32.2447 24.7052 31.6721 24.9261 28.9502C24.9261 28.9502 24.5015 29.9821 19.9062 30.8016C14.7218 31.7255 8.32764 31.6177 4.53516 31.0255C4.53525 31.0255 5.31143 31.634 9.30361 31.8764Z" fill="#5382A1"/>
</g>
<defs>
<clipPath id="clip0_400_711">
<rect width="25" height="32" fill="white"/>
</clipPath>
</defs>
</svg>
