<svg width="32" height="32" viewBox="0 0 32 32" fill="none" xmlns="http://www.w3.org/2000/svg">
<g clip-path="url(#clip0_399_636)">
<path d="M16 0L6.98187 1.05214L0 11.3941L16 31.9534L32 11.3941L25.0182 1.05214L16 0Z" fill="#FDB300"/>
<path d="M0 11.3945L16 31.9537L6.48075 11.3945H0ZM25.5191 11.3945L16 31.9537L31.9999 11.3945H25.5191Z" fill="#EB6C00"/>
<path d="M6.48047 11.3945L15.9997 31.9537L25.519 11.3945H6.48047Z" fill="#FDAD00"/>
<path d="M6.98159 1.05214L6.48047 11.3941L15.9997 0L6.98159 1.05214ZM25.5188 11.3942L25.0178 1.05214L15.9997 0.000137931L25.5188 11.3942Z" fill="#FDD231"/>
<path d="M25.5193 11.3938H31.9999L25.0181 1.05176L25.5193 11.3938ZM0 11.3938H6.48075L6.98187 1.05176L0 11.3938Z" fill="#FDAD00"/>
<path d="M15.9997 0L6.48047 11.3941H25.519L15.9997 0Z" fill="#FEEEB7"/>
</g>
<defs>
<clipPath id="clip0_399_636">
<rect width="32" height="32" fill="white"/>
</clipPath>
</defs>
</svg>
