<svg width="32" height="32" viewBox="0 0 32 32" fill="none" xmlns="http://www.w3.org/2000/svg">
<g clip-path="url(#clip0_399_633)">
<path d="M26.6875 0H5.3125C2.37849 0 0 2.43557 0 5.44V26.5088C0 29.5132 2.37849 31.9488 5.3125 31.9488H26.6875C29.6215 31.9488 32 29.5132 32 26.5088V5.44C32 2.43557 29.6215 0 26.6875 0Z" fill="#470137"/>
<path d="M16.8226 8.40204L12.8297 15.1506L17.1016 22.3167C17.1291 22.3668 17.1367 22.4257 17.1231 22.4815C17.1164 22.5053 17.1022 22.5112 17.0803 22.5121L17.0561 22.5117L17.0266 22.511C17.0106 22.511 16.9927 22.5117 16.9728 22.5151H13.8928L13.8323 22.514C13.6663 22.5096 13.5467 22.4852 13.4738 22.3606C13.1888 21.7921 12.9026 21.2242 12.6151 20.657C12.3579 20.1511 12.0937 19.649 11.8226 19.1508L11.7028 18.9314C11.3785 18.3413 11.0601 17.7478 10.7476 17.151H10.7261C10.4374 17.7415 10.1405 18.3277 9.8352 18.9094C9.52732 19.4957 9.2232 20.0783 8.92282 20.657C8.62227 21.2362 8.31458 21.8114 7.99982 22.3826C7.9492 22.4991 7.86507 22.5234 7.74795 22.5274L7.6992 22.5281H4.75832L4.74557 22.5285L4.70357 22.5323C4.6802 22.5338 4.6662 22.5286 4.6617 22.4925C4.65363 22.4389 4.66511 22.3842 4.69395 22.3387L8.83695 15.3704L4.8012 8.38028C4.75832 8.32191 4.7512 8.2743 4.7797 8.23743C4.79554 8.21865 4.81543 8.2039 4.8378 8.19435C4.86016 8.1848 4.88439 8.1807 4.90857 8.18239H7.93532C8.00133 8.17869 8.06732 8.18997 8.12857 8.21542C8.17982 8.24524 8.22395 8.28658 8.25732 8.33638C8.51495 8.92262 8.8012 9.50886 9.11607 10.0948C9.4285 10.6771 9.74694 11.256 10.0713 11.8314C10.3907 12.3979 10.6879 12.9772 10.9622 13.568H10.9837C11.2648 12.9774 11.5546 12.3911 11.8531 11.8095C12.1462 11.238 12.4468 10.6626 12.7546 10.0838C13.0584 9.51244 13.3554 8.93725 13.6454 8.35839C13.6619 8.30412 13.6914 8.25497 13.7313 8.21542C13.7843 8.18793 13.8439 8.17647 13.9031 8.18239H16.7152C16.741 8.17579 16.7683 8.17797 16.7928 8.18859C16.8174 8.19921 16.8379 8.21771 16.8513 8.2413C16.8647 8.26489 16.8702 8.29229 16.8671 8.31938C16.864 8.34648 16.8523 8.3718 16.8339 8.39154L16.8226 8.40204ZM23.1313 22.7986L22.9833 22.8002C21.9952 22.8157 21.0162 22.6054 20.1174 22.1848C19.2802 21.788 18.5803 21.1403 18.1103 20.3273C17.6364 19.5214 17.3932 18.5171 17.3809 17.3148L17.3804 17.2169C17.3724 16.208 17.6242 15.2148 18.1104 14.3373C18.5971 13.4688 19.3065 12.7532 20.1619 12.268L20.2356 12.2271C21.1656 11.6994 22.2891 11.4356 23.6058 11.4356L23.6633 11.4363L23.7291 11.4385L23.8028 11.4418L23.8848 11.4466L24.0226 11.4566L24.1786 11.4694L24.2927 11.4797V7.14918C24.2927 7.04678 24.3357 6.99532 24.4214 6.99532H27.1263C27.1438 6.99275 27.1616 6.99439 27.1784 7.00011C27.1952 7.00582 27.2104 7.01546 27.2229 7.02826C27.2354 7.04105 27.2448 7.05665 27.2504 7.07382C27.256 7.09099 27.2576 7.10925 27.2551 7.12716V20.1185C27.2551 20.3366 27.2633 20.5716 27.2798 20.823L27.3198 21.3933L27.3411 21.7231C27.3437 21.7688 27.3328 21.8142 27.3098 21.8535C27.2868 21.8927 27.2528 21.9239 27.2122 21.943C26.5144 22.241 25.7876 22.462 25.0441 22.6024C24.4129 22.7217 23.7731 22.7873 23.1313 22.7986ZM24.2927 20.0745V14.0735C24.1767 14.0413 24.0582 14.0192 23.9386 14.0075C23.7923 13.9925 23.6454 13.9851 23.4984 13.9855C22.9775 13.9802 22.4627 14.1008 21.9958 14.3373C21.541 14.5688 21.1527 14.9172 20.8688 15.3485C20.5854 15.7729 20.4388 16.3272 20.4292 17.0112L20.4287 17.085C20.4183 17.5642 20.4947 18.0412 20.6541 18.4918C20.7838 18.8549 20.989 19.1849 21.2553 19.4591C21.5102 19.7112 21.8188 19.8993 22.1568 20.0086C22.5139 20.127 22.887 20.1864 23.2623 20.1846C23.4626 20.1846 23.6486 20.1771 23.8204 20.1624C23.9575 20.1519 24.0934 20.1287 24.2264 20.0933L24.2927 20.0745Z" fill="#FF61F6"/>
</g>
<defs>
<clipPath id="clip0_399_633">
<rect width="32" height="32" fill="white"/>
</clipPath>
</defs>
</svg>
