<svg width="32" height="32" viewBox="0 0 32 32" fill="none" xmlns="http://www.w3.org/2000/svg">
<g clip-path="url(#clip0_399_652)">
<path d="M4.93197 22.0234L3.25797 22.7871L3.16797 29.0061L8.96297 26.3625C6.97547 25.5289 5.52397 24.0619 4.93197 22.0234Z" fill="#FDBD39"/>
<path d="M5.80837 15.4463L0 18.096L3.25825 22.7877L4.93225 22.0241C4.342 19.9915 4.706 17.6939 5.80837 15.4463Z" fill="#F69833"/>
<path d="M15.5824 6.47179C8.18598 9.84599 3.4176 16.8086 4.93185 22.0233L31.7165 9.80416C30.2022 4.58941 22.9787 3.09743 15.5824 6.47147" fill="#FECF33"/>
<path d="M21.0669 25.3562C28.4631 21.982 33.2406 15.0502 31.7172 9.80469L4.93262 22.0237C6.45587 27.2692 13.6705 28.7303 21.0669 25.3562Z" fill="#EE6723"/>
<path d="M31.7172 9.80469L4.93262 22.024C5.45712 23.8301 7.45712 24.7198 10.2635 24.7198C12.9994 24.7198 16.5016 23.8749 20.1529 22.2091C27.5492 18.8349 32.7531 13.3718 31.7172 9.805" fill="#F69833"/>
<path d="M26.386 7.1084C23.65 7.1084 20.1478 7.95351 16.4965 9.61907C9.10027 12.9933 3.89639 18.4564 4.93214 22.0234L31.7168 9.8042C31.1924 7.99815 29.1923 7.1084 26.386 7.1084Z" fill="#FDBD39"/>
<path d="M24.9068 29.3357H24.9066C24.1186 29.3357 22.9559 28.4468 21.4511 26.6936C19.6706 24.6196 17.6311 21.5817 15.7083 18.1396C13.7854 14.6977 12.2054 11.2567 11.2593 8.45035C10.2284 5.39193 10.0814 3.51142 10.8224 2.86112C10.9849 2.7186 11.1808 2.64648 11.4044 2.64648C12.0072 2.64648 13.1816 3.20687 15.3532 5.87661L15.4007 5.93499L15.3942 6.01788C15.3794 6.20948 15.3658 6.40122 15.3534 6.5931L15.3293 6.97023L15.1162 6.70221C12.7764 3.75852 11.7464 3.44071 11.4122 3.44071C11.3168 3.44071 11.2409 3.4649 11.1866 3.51267C10.8651 3.79474 10.8444 5.17589 11.8438 8.14065C12.7731 10.897 14.3301 14.2862 16.2281 17.6834C18.1262 21.081 20.1343 24.074 21.8831 26.1111C23.7686 28.3075 24.6183 28.5446 24.8961 28.5446C24.992 28.5446 25.0699 28.519 25.1277 28.4681C25.4668 28.1708 25.4672 26.6911 24.3527 23.5L24.3014 23.3536L24.4136 23.2771C24.5256 23.2005 24.6339 23.1251 24.7354 23.053L24.8697 22.9577L24.9314 23.1346C25.7217 25.3957 26.4604 28.2694 25.4918 29.1199C25.3286 29.263 25.1318 29.3357 24.9068 29.3357ZM24.9066 28.9869H24.9068L24.9067 29.1612L24.9066 28.9869Z" fill="#EE6723"/>
<path d="M21.2458 25.2608L21.2346 25.4345C21.0476 28.3239 20.5552 31.7977 19.2715 31.9382C19.2457 31.9412 19.2189 31.9426 19.1921 31.9426C18.3201 31.9426 17.495 30.3822 16.74 27.3049C16.0255 24.3935 15.4712 20.4845 15.179 16.298C14.8867 12.1122 14.8911 8.14189 15.1912 5.1186C15.5186 1.824 16.1413 0.103337 17.0425 0.00468293C17.0692 0.00156098 17.0968 0 17.1241 0C17.7567 0 18.7102 0.894439 19.6862 5.06131L19.049 5.21491C18.7231 3.82252 18.3678 2.69003 18.0152 1.91188C17.6891 1.19212 17.3719 0.795785 17.1223 0.795785C17.1141 0.795785 17.1058 0.796098 17.0977 0.796878C16.7071 0.839805 16.1382 2.02302 15.821 5.21678C15.5262 8.18607 15.5226 12.0968 15.8109 16.2287C16.0996 20.3612 16.6448 24.2118 17.3464 27.0712C17.6606 28.3517 18.0052 29.4071 18.3431 30.1232C18.6546 30.7835 18.9561 31.1472 19.1918 31.1472C19.2001 31.1472 19.2081 31.1468 19.2162 31.146C19.59 31.1051 20.2943 29.8738 20.5907 25.5415L21.2458 25.2608Z" fill="#EE6723"/>
</g>
<defs>
<clipPath id="clip0_399_652">
<rect width="32" height="32" fill="white"/>
</clipPath>
</defs>
</svg>
