<svg width="22" height="32" viewBox="0 0 22 32" fill="none" xmlns="http://www.w3.org/2000/svg">
<g clip-path="url(#clip0_399_646)">
<path d="M5.5 31.9997C8.536 31.9997 11 29.6103 11 26.6663V21.333H5.5C2.464 21.333 0 23.7223 0 26.6663C0 29.6103 2.464 31.9997 5.5 31.9997Z" fill="#0ACF83"/>
<path d="M0 16.0003C0 13.0563 2.464 10.667 5.5 10.667H11V21.3337H5.5C2.464 21.3337 0 18.9443 0 16.0003Z" fill="#A259FF"/>
<path d="M0 5.33333C0 2.38933 2.464 0 5.5 0H11V10.6667H5.5C2.464 10.6667 0 8.27733 0 5.33333Z" fill="#F24E1E"/>
<path d="M11 0H16.5C19.536 0 22 2.38933 22 5.33333C22 8.27733 19.536 10.6667 16.5 10.6667H11V0Z" fill="#FF7262"/>
<path d="M22 16.0003C22 18.9443 19.536 21.3337 16.5 21.3337C13.464 21.3337 11 18.9443 11 16.0003C11 13.0563 13.464 10.667 16.5 10.667C19.536 10.667 22 13.0563 22 16.0003Z" fill="#1ABCFE"/>
</g>
<defs>
<clipPath id="clip0_399_646">
<rect width="22" height="32" fill="white"/>
</clipPath>
</defs>
</svg>
