<svg width="32" height="32" viewBox="0 0 32 32" fill="none" xmlns="http://www.w3.org/2000/svg">
<g clip-path="url(#clip0_411_2)">
<path d="M24.5 0H7.5C3.35786 0 0 3.35786 0 7.5V24.5C0 28.6421 3.35786 32 7.5 32H24.5C28.6421 32 32 28.6421 32 24.5V7.5C32 3.35786 28.6421 0 24.5 0Z" fill="#242938"/>
<path d="M18.1168 4.75775L25.0886 4.75L13.3918 16.4408L10.3434 19.4721L6.875 15.9995L18.1168 4.75775ZM18.0519 15.1961C18.1424 15.0766 18.3089 15.1356 18.4352 15.1202L25.0826 15.1219L19.0243 21.1744L15.5379 17.7094L18.0519 15.1961Z" fill="#44D1FD"/>
<path d="M12.0625 21.1799L15.5378 17.709L19.0241 21.174L19.0386 21.1894L15.5386 24.6569L12.0625 21.1799Z" fill="#1FBCFD"/>
<path d="M15.5391 24.657L19.0391 21.1895L25.0854 27.2418C22.8079 27.247 20.5312 27.2401 18.2546 27.2452C18.1248 27.2742 18.0446 27.1556 17.9617 27.0822L15.5391 24.657Z" fill="#08589C"/>
</g>
<defs>
<clipPath id="clip0_411_2">
<rect width="32" height="32" fill="white"/>
</clipPath>
</defs>
</svg>
