<svg width="32" height="32" viewBox="0 0 32 32" fill="none" xmlns="http://www.w3.org/2000/svg">
<g clip-path="url(#clip0_400_661)">
<path d="M24.5 0H7.5C3.35786 0 0 3.35786 0 7.5V24.5C0 28.6421 3.35786 32 7.5 32H24.5C28.6421 32 32 28.6421 32 24.5V7.5C32 3.35786 28.6421 0 24.5 0Z" fill="#330000"/>
<path d="M15.4669 19.0415H10.5069L9.4935 22.1749C9.46687 22.2949 9.36025 22.3749 9.24025 22.3615H6.7335C6.58687 22.3615 6.54687 22.2815 6.58687 22.1215L10.8802 9.76155C10.9202 9.6283 10.9602 9.48155 11.0135 9.32155C11.0669 9.04155 11.0935 8.7483 11.0935 8.45492C11.0802 8.3883 11.1335 8.32155 11.2002 8.3083H14.6535C14.7602 8.3083 14.8135 8.3483 14.8269 8.41492L19.6935 22.1483C19.7335 22.2949 19.6935 22.3615 19.5602 22.3615H16.7735C16.6802 22.3749 16.5869 22.3083 16.5602 22.2149L15.4669 19.0415ZM11.2802 16.3349H14.6669C14.5869 16.0549 14.4802 15.7215 14.3602 15.3749C14.2402 15.0149 14.1202 14.6283 14.0002 14.2283C13.8669 13.8149 13.7469 13.4149 13.6135 13.0015C13.4802 12.5883 13.3602 12.2015 13.2535 11.8149C13.1469 11.4417 13.0535 11.0949 12.9602 10.7749H12.9335C12.8135 11.3483 12.6669 11.9217 12.4802 12.4949C12.2802 13.1349 12.0802 13.8015 11.8669 14.4683C11.6947 15.0976 11.499 15.7202 11.2802 16.3349ZM22.6669 10.6415C22.2269 10.6549 21.8002 10.4815 21.4802 10.1749C21.1736 9.84155 21.0136 9.40155 21.0269 8.9483C21.0136 8.49492 21.1869 8.0683 21.5069 7.76155C21.8269 7.45492 22.2536 7.29492 22.6936 7.29492C23.2136 7.29492 23.6136 7.45492 23.9069 7.76155C24.2024 8.08481 24.3602 8.51053 24.3469 8.9483C24.3602 9.40155 24.2002 9.84155 23.8802 10.1749C23.5736 10.4949 23.1202 10.6683 22.6669 10.6415ZM21.1736 22.2149V11.9483C21.1736 11.8149 21.2269 11.7615 21.3469 11.7615H23.9869C24.1069 11.7615 24.1602 11.8283 24.1602 11.9483V22.2149C24.1602 22.3615 24.1069 22.4283 23.9869 22.4283H21.3736C21.2402 22.4283 21.1736 22.3483 21.1736 22.2149Z" fill="#FF9A00"/>
</g>
<defs>
<clipPath id="clip0_400_661">
<rect width="32" height="32" fill="white"/>
</clipPath>
</defs>
</svg>
