<svg width="29" height="32" viewBox="0 0 29 32" fill="none" xmlns="http://www.w3.org/2000/svg">
<path fill-rule="evenodd" clip-rule="evenodd" d="M11.1264 29.1273H16.916L16.1283 32H11.9038L11.1264 29.1273ZM9.51802 11.5469C9.81957 15.8675 11.1586 21.2667 13.4546 27.5333C13.8515 27.6966 14.2286 27.6904 14.5878 27.5333C16.8831 21.2688 18.2221 15.8709 18.524 11.551C19.5175 -4 8.54762 -3.5625 9.51802 11.5469ZM11.9141 0C11.9141 0 5.1556 2.101 5.64213 10.1819C6.12859 18.2628 12.8508 27.5289 12.8508 27.5289C8.71244 24.5131 2.58287 15.118 2.46477 9.58937C2.42224 4.6875 6.48546 0.576875 11.9141 0ZM1.1687 10.2987C2.1566 18.5041 12.3458 27.8457 11.5324 27.233C9.26342 25.6257 1.62358 18.0582 0.187953 10.9671C-1.24767 3.87606 6.01202 1.42 6.01202 1.42C1.79806 3.76669 0.69579 7.20088 1.16878 10.2988M16.7255 27.1432C17.2799 26.1944 22.0725 17.7943 22.5308 10.182C23.0172 2.101 16.2588 0 16.2588 0C16.8888 0.022 18.2912 0.358 19.615 0.87625C20.9389 1.39444 25.6169 3.75544 25.708 9.58937C25.6304 13.2212 23.5414 18.3937 20.944 22.3706C23.575 19.0565 26.5271 14.5269 27.0361 10.2987C27.5091 7.20087 26.4068 3.76669 22.1929 1.42C22.1929 1.42 29.4525 3.87606 28.0169 10.9671C26.5811 18.0582 18.9276 25.6332 16.6588 27.2405L16.7255 27.1432Z" fill="white"/>
</svg>
